<svg width="65" height="66" fill="none" xmlns="http://www.w3.org/2000/svg"><path d="M54.237 25.098a1.327 1.327 0 00-1.85 0 1.266 1.266 0 00.06 1.874c.253.232.574.346.895.346.35 0 .698-.136.955-.406a1.266 1.266 0 00-.06-1.814zm-2.659-2.108a20.575 20.575 0 00-2.286-1.323c-4.342-2.143-8.944-2.574-13.308-1.244a1.28 1.28 0 00-.862 1.606 1.313 1.313 0 001.638.845c3.704-1.128 7.63-.753 11.356 1.086.657.325 1.346.724 1.992 1.154.225.15.48.222.734.222.419 0 .83-.197 1.084-.563a1.269 1.269 0 00-.348-1.783z" fill="#F4522F"/><path d="M63.483 39.6c-.536-1.104-1.424-2.932-1.44-3.537 1.53-3.7.972-7.793-1.577-11.538-3.92-5.76-11.953-9.94-19.102-9.94-3.778 0-7.468.884-10.788 2.571-.952-5.118-5.529-9.011-11.018-9.011-6.177 0-11.203 4.929-11.203 10.988 0 3.855 2.003 7.36 5.358 9.375.967.581 1.186 1.084 1.263 1.907v7.51c0 1.434 1.189 2.6 2.65 2.6h.445c.718 5.618 3.49 10.72 7.891 14.473.042.127.163.722-.357 2.495-.405 1.382-1.027 2.916-1.575 4.27-.367.906-.684 1.689-.875 2.28-.127.39-.056.817.19 1.147.247.33.64.526 1.057.526h18.68c.613 0 1.456-.27 1.987-1.554.23-.559.381-1.231.541-1.943.156-.694.52-2.318.883-2.514 0 0 .021-.004.072.004a1.4 1.4 0 00.204.015c1.956 0 3.554.087 4.965.164 4.136.225 6.633.361 8.823-2.733 1.114-1.574.987-3.87.854-6.3-.07-1.252-.14-2.545-.014-3.62.228-.22.8-.605 1.159-.846 1.233-.832 2.398-1.616 2.398-2.81 0-.906-.558-2.102-1.47-3.98zM15.08 26.319c-2.572-1.545-4.107-4.232-4.107-7.186 0-4.644 3.851-8.421 8.585-8.421 4.735 0 8.586 3.777 8.586 8.42 0 2.955-1.535 5.642-4.107 7.187-1.223.735-1.95 1.592-2.294 2.75h-4.369c-.345-1.158-1.071-2.015-2.294-2.75zm6.443 5.317v1.878h-3.93v-1.878h3.93zm-3.897 6.321c-.015 0-.032-.017-.032-.032v-1.844h3.93v1.844c0 .015-.018.032-.033.032h-3.865zm43.449 6.315c-1.127.759-2.1 1.414-2.243 2.406-.197 1.36-.114 2.862-.035 4.316.1 1.803.212 3.846-.39 4.697-1.302 1.84-2.428 1.857-6.528 1.634a90.425 90.425 0 00-5.022-.168c-.764-.088-2.058.053-2.92 1.698-.44.836-.675 1.886-.883 2.812-.104.465-.25 1.12-.388 1.481h-16.38l.177-.437c1.885-4.656 3.08-8.07 1.262-9.612-3.852-3.267-6.309-7.692-7.013-12.575h.779c1.461 0 2.65-1.166 2.65-2.599v-7.508c.077-.824.295-1.327 1.263-1.909 3.098-1.861 5.041-4.993 5.321-8.496a21.1 21.1 0 0110.64-2.86c6.234 0 13.51 3.782 16.924 8.798 1.463 2.15 2.876 5.494 1.3 9.217-.514 1.213.248 2.895 1.532 5.538.416.855 1.018 2.094 1.177 2.672-.27.253-.851.645-1.223.895z" fill="#F4522F"/><path d="M25.977 17.32c-.386-1.405-1.346-2.53-2.778-3.255a1.321 1.321 0 00-1.763.553c-.33.63-.079 1.404.564 1.729.78.395 1.256.932 1.45 1.641.31 1.122-.157 2.337-.363 2.652a1.269 1.269 0 00.4 1.772c.219.137.462.201.703.201.432 0 .855-.21 1.104-.593.559-.859 1.201-2.82.683-4.7zM19.559 0c-.723 0-1.309.575-1.309 1.284v3.659c0 .708.586 1.283 1.309 1.283.722 0 1.308-.575 1.308-1.283v-3.66C20.867.576 20.281 0 19.56 0zM5.04 17.9H1.308C.586 17.9 0 18.477 0 19.185c0 .709.586 1.284 1.309 1.284h3.73c.723 0 1.309-.575 1.309-1.284 0-.709-.586-1.283-1.309-1.283zm8.391-11.693L11.567 3.04a1.323 1.323 0 00-1.788-.47A1.27 1.27 0 009.3 4.324l1.865 3.167c.242.412.682.642 1.134.642.222 0 .447-.056.653-.172a1.27 1.27 0 00.48-1.754zm-5.794 4.745l-3.23-1.83a1.323 1.323 0 00-1.787.47 1.27 1.27 0 00.479 1.754l3.23 1.829a1.326 1.326 0 001.787-.47 1.27 1.27 0 00-.479-1.753zm28.861-1.36a1.323 1.323 0 00-1.788-.47l-3.23 1.83a1.27 1.27 0 00-.479 1.753c.243.412.682.642 1.135.642.222 0 .447-.056.653-.173l3.23-1.829a1.27 1.27 0 00.479-1.753zM8.117 25.663a1.323 1.323 0 00-1.788-.47l-3.23 1.83a1.27 1.27 0 00-.48 1.753 1.324 1.324 0 001.788.47l3.23-1.83a1.27 1.27 0 00.48-1.753zm4.566 5.201a1.323 1.323 0 00-1.787.47L9.3 34.044a1.27 1.27 0 00.48 1.754c.205.117.43.172.652.172.452 0 .892-.23 1.135-.642l1.595-2.71a1.27 1.27 0 00-.479-1.754zM29.338 2.57a1.322 1.322 0 00-1.787.47l-1.865 3.168a1.27 1.27 0 00.479 1.753c.206.117.43.172.653.172.452 0 .892-.23 1.134-.642l1.865-3.167a1.27 1.27 0 00-.479-1.754z" fill="#F4522F"/></svg>