<svg width="50" height="50" fill="none" xmlns="http://www.w3.org/2000/svg"><path d="M29.785 25a4.785 4.785 0 11-9.57 0 4.785 4.785 0 019.57 0z" fill="#F4522F"/><path d="M36.19 16.534a4.448 4.448 0 00-1.073-1.65 4.445 4.445 0 00-1.65-1.075c-.506-.196-1.266-.43-2.666-.494-1.514-.069-1.968-.084-5.8-.084-3.834 0-4.288.015-5.802.084-1.4.064-2.16.298-2.665.494a4.442 4.442 0 00-1.65 1.074 4.45 4.45 0 00-1.075 1.65c-.197.507-.43 1.267-.494 2.666-.07 1.514-.084 1.968-.084 5.801 0 3.834.015 4.288.084 5.802.064 1.4.297 2.16.494 2.665a4.45 4.45 0 001.074 1.65 4.445 4.445 0 001.65 1.074c.506.197 1.266.431 2.666.495 1.514.069 1.967.083 5.8.083 3.835 0 4.288-.014 5.802-.083 1.4-.064 2.16-.298 2.665-.495a4.754 4.754 0 002.725-2.724c.196-.506.43-1.266.494-2.665.07-1.514.084-1.968.084-5.802 0-3.833-.015-4.287-.084-5.8-.064-1.4-.297-2.16-.494-2.666zM25 32.372a7.371 7.371 0 110-14.743 7.371 7.371 0 010 14.743zm7.663-13.312a1.723 1.723 0 110-3.446 1.723 1.723 0 010 3.446z" fill="#F4522F"/><path d="M25 0C11.195 0 0 11.195 0 25s11.195 25 25 25 25-11.195 25-25S38.805 0 25 0zm14.269 30.919c-.07 1.528-.313 2.571-.667 3.484a7.34 7.34 0 01-4.199 4.199c-.913.355-1.956.597-3.484.667-1.531.07-2.02.087-5.919.087-3.899 0-4.387-.017-5.919-.087-1.527-.07-2.571-.313-3.484-.667a7.033 7.033 0 01-2.543-1.656 7.035 7.035 0 01-1.655-2.543c-.355-.913-.598-1.956-.667-3.484-.071-1.531-.087-2.02-.087-5.919 0-3.899.016-4.388.086-5.919.07-1.528.312-2.571.667-3.484a7.033 7.033 0 011.656-2.543 7.032 7.032 0 012.543-1.656c.913-.354 1.956-.597 3.484-.667 1.531-.07 2.02-.086 5.919-.086 3.899 0 4.388.016 5.919.087 1.528.069 2.571.312 3.484.666.958.36 1.826.926 2.543 1.656a7.033 7.033 0 011.656 2.543c.355.913.597 1.956.667 3.484.07 1.531.087 2.02.087 5.919 0 3.899-.017 4.388-.087 5.919z" fill="#F4522F"/></svg>