<svg width="220" height="60" fill="none" xmlns="http://www.w3.org/2000/svg"><path d="M61.625 36.83a87.848 87.848 0 01-.105-2.625c0-.91-.012-1.89-.035-2.94-.023-1.05-.035-2.182-.035-3.395v-4.13c0-1.657.012-3.068.035-4.235.023-1.19.093-2.158.21-2.905.117-.747.292-1.295.525-1.645.257-.35.595-.525 1.015-.525.21 0 .408.023.595.07a.94.94 0 01.49.315c.14.14.257.362.35.665.117.28.187.653.21 1.12.047.84.082 1.587.105 2.24l.07 1.96c.023.63.035 1.295.035 1.995v5.32c0 .957-.012 1.902-.035 2.835l-.07 2.835c-.023.957-.058 1.96-.105 3.01-.023.56-.082.992-.175 1.295-.093.303-.21.537-.35.7a.76.76 0 01-.49.28 2.59 2.59 0 01-.63.07c-.42 0-.782-.14-1.085-.42-.303-.303-.478-.933-.525-1.89zm21.04-16.1c.49 0 1.108.047 1.855.14a9.16 9.16 0 012.135.455c.677.21 1.26.513 1.75.91s.735.898.735 1.505c0 .35-.105.653-.315.91-.187.257-.49.385-.91.385-.303 0-.653-.047-1.05-.14l-1.26-.315c-.443-.14-.933-.257-1.47-.35a9.197 9.197 0 00-1.645-.14c-.98 0-1.785.152-2.415.455-.607.303-.91.782-.91 1.435 0 .373.105.688.315.945.233.257.537.49.91.7a8.4 8.4 0 001.365.49c.537.14 1.097.28 1.68.42.723.187 1.435.397 2.135.63.723.233 1.365.56 1.925.98.56.397 1.015.91 1.365 1.54.35.607.525 1.365.525 2.275 0 1.727-.653 3.103-1.96 4.13-1.307 1.003-3.232 1.505-5.775 1.505-.56 0-1.225-.047-1.995-.14a9.186 9.186 0 01-2.17-.455 5.194 5.194 0 01-1.75-.91c-.467-.42-.7-.968-.7-1.645 0-.467.105-.817.315-1.05.233-.257.513-.385.84-.385.257 0 .525.082.805.245.28.163.618.338 1.015.525.397.187.875.362 1.435.525.56.163 1.248.245 2.065.245.303 0 .7-.012 1.19-.035.49-.047.968-.152 1.435-.315.49-.163.898-.385 1.225-.665.35-.303.525-.723.525-1.26 0-.42-.117-.77-.35-1.05a2.85 2.85 0 00-.945-.77 6.498 6.498 0 00-1.4-.525 49.034 49.034 0 00-1.645-.49 41.165 41.165 0 01-2.065-.63 8.069 8.069 0 01-1.855-.91 4.593 4.593 0 01-1.365-1.4c-.35-.583-.525-1.295-.525-2.135 0-.793.163-1.528.49-2.205.327-.7.793-1.307 1.4-1.82.607-.513 1.33-.91 2.17-1.19.863-.28 1.82-.42 2.87-.42zm20.579 23.31c0 .443-.012.863-.035 1.26-.024.42-.105.793-.245 1.12a1.587 1.587 0 01-.56.77c-.234.21-.572.315-1.015.315-.514 0-.945-.187-1.295-.56-.327-.35-.514-.98-.56-1.89a143.02 143.02 0 00-.105-2.135c-.047-.84-.094-1.727-.14-2.66-.024-.933-.059-1.867-.105-2.8-.024-.933-.035-1.797-.035-2.59 0-2.73.186-4.982.56-6.755.396-1.773.98-3.185 1.75-4.235.77-1.05 1.715-1.785 2.835-2.205 1.143-.42 2.461-.63 3.955-.63 1.19 0 2.31.187 3.36.56 1.05.35 1.96.91 2.73 1.68.793.747 1.423 1.727 1.89 2.94.466 1.19.7 2.625.7 4.305 0 1.4-.245 2.637-.735 3.71a7.721 7.721 0 01-1.96 2.73c-.84.723-1.832 1.283-2.975 1.68a11.34 11.34 0 01-3.605.56c-1.097 0-2.089-.222-2.975-.665-.864-.467-1.482-.968-1.855-1.505.116 1.307.21 2.52.28 3.64.093 1.12.14 2.24.14 3.36zm4.83-19.495c-.817 0-1.529.14-2.135.42a3.877 3.877 0 00-1.435 1.155c-.374.49-.654 1.073-.84 1.75a9.352 9.352 0 00-.245 2.205c0 .77.07 1.505.21 2.205.163.677.42 1.272.77 1.785.35.513.816.922 1.4 1.225.583.303 1.295.455 2.135.455.653 0 1.283-.082 1.89-.245a4.25 4.25 0 001.61-.91c.49-.42.875-.98 1.155-1.68.303-.7.455-1.575.455-2.625 0-1.073-.152-1.972-.455-2.695-.28-.747-.665-1.342-1.155-1.785a3.86 3.86 0 00-1.61-.98 5.718 5.718 0 00-1.75-.28zm33.14 14.595c-.373 0-.677-.058-.91-.175a1.507 1.507 0 01-.49-.525 2.272 2.272 0 01-.245-.735 11.4 11.4 0 01-.105-.945c-.583.723-1.342 1.33-2.275 1.82-.91.49-2.077.735-3.5.735-.91 0-1.843-.128-2.8-.385a7.05 7.05 0 01-2.555-1.4c-.77-.677-1.4-1.575-1.89-2.695-.49-1.12-.735-2.532-.735-4.235 0-1.33.163-2.578.49-3.745.327-1.167.817-2.182 1.47-3.045a7.33 7.33 0 012.52-2.1c1.003-.513 2.182-.77 3.535-.77 1.19 0 2.252.222 3.185.665.933.42 1.773 1.12 2.52 2.1 0-.28.012-.56.035-.84.023-.303.082-.572.175-.805.117-.257.292-.455.525-.595.233-.163.548-.245.945-.245.35 0 .677.14.98.42.303.28.478.887.525 1.82.07 1.237.117 2.345.14 3.325.047.98.07 1.995.07 3.045 0 1.283-.012 2.462-.035 3.535a62.584 62.584 0 01-.175 3.43c-.047.537-.117.968-.21 1.295-.07.303-.163.537-.28.7a.842.842 0 01-.42.28c-.163.047-.327.07-.49.07zm-1.89-8.89c0-1.213-.187-2.205-.56-2.975-.35-.77-.805-1.365-1.365-1.785a4.505 4.505 0 00-1.75-.91 7.005 7.005 0 00-1.75-.245c-.84 0-1.563.152-2.17.455a3.93 3.93 0 00-1.435 1.26c-.373.513-.653 1.132-.84 1.855-.163.7-.245 1.47-.245 2.31 0 2.053.443 3.57 1.33 4.55.91.98 2.135 1.47 3.675 1.47.91 0 1.68-.152 2.31-.455a4.326 4.326 0 001.575-1.295c.42-.537.723-1.167.91-1.89.21-.747.315-1.528.315-2.345zm22.408-9.1c.677 0 1.354.058 2.03.175.7.117 1.33.28 1.89.49.56.21 1.015.467 1.365.77.35.303.525.653.525 1.05 0 1.027-.583 1.54-1.75 1.54-.28 0-.548-.035-.805-.105a5.224 5.224 0 00-.84-.245 9.384 9.384 0 00-1.225-.245c-.49-.093-1.096-.14-1.82-.14-1.54 0-2.73.525-3.57 1.575-.84 1.05-1.26 2.415-1.26 4.095 0 1.843.42 3.325 1.26 4.445.864 1.12 2.077 1.68 3.64 1.68.98 0 1.774-.082 2.38-.245.607-.163 1.097-.35 1.47-.56.397-.21.712-.397.945-.56.257-.163.537-.245.84-.245.42 0 .747.093.98.28.257.163.385.513.385 1.05 0 .56-.221 1.05-.665 1.47-.42.42-.956.77-1.61 1.05-.653.28-1.365.49-2.135.63-.746.14-1.435.21-2.065.21-2.823 0-5.04-.782-6.65-2.345-1.61-1.563-2.415-3.78-2.415-6.65 0-1.237.187-2.403.56-3.5a8.5 8.5 0 011.75-2.94c.77-.84 1.715-1.505 2.835-1.995 1.144-.49 2.462-.735 3.955-.735zm24.328 11.41c-.817 0-1.68-.058-2.59-.175-.887-.14-1.855-.42-2.905-.84.21 1.423.793 2.497 1.75 3.22.98.723 2.38 1.085 4.2 1.085.653 0 1.237-.035 1.75-.105a24.624 24.624 0 001.4-.28c.397-.117.747-.21 1.05-.28a2.87 2.87 0 01.84-.14c.327 0 .642.105.945.315.303.187.455.513.455.98 0 .583-.245 1.062-.735 1.435-.467.373-1.05.677-1.75.91-.677.21-1.4.35-2.17.42-.77.093-1.447.14-2.03.14-1.377 0-2.648-.187-3.815-.56-1.143-.373-2.135-.933-2.975-1.68-.84-.77-1.493-1.715-1.96-2.835-.467-1.12-.7-2.427-.7-3.92 0-1.447.222-2.73.665-3.85.467-1.12 1.097-2.065 1.89-2.835a7.903 7.903 0 012.8-1.75c1.097-.397 2.275-.595 3.535-.595.98 0 1.925.128 2.835.385.933.257 1.75.642 2.45 1.155a5.56 5.56 0 011.715 1.96c.443.77.665 1.68.665 2.73 0 .933-.175 1.727-.525 2.38a4.065 4.065 0 01-1.505 1.575c-.63.397-1.4.688-2.31.875-.887.187-1.878.28-2.975.28zm-.245-8.12a6.73 6.73 0 00-1.82.245 4.59 4.59 0 00-1.61.735c-.467.327-.863.77-1.19 1.33-.327.537-.548 1.213-.665 2.03.887.397 1.75.677 2.59.84.84.14 1.727.21 2.66.21 1.377 0 2.392-.163 3.045-.49.677-.35 1.015-.968 1.015-1.855 0-.817-.315-1.528-.945-2.135-.607-.607-1.633-.91-3.08-.91z" fill="#F4522F"/><path d="M59.975 53.194c-.017-.312-.03-.637-.039-.975 0-.338-.004-.702-.013-1.092-.009-.39-.013-.81-.013-1.261v-1.534c0-.615.004-1.14.013-1.573.009-.442.035-.802.078-1.079.043-.277.108-.481.195-.611a.446.446 0 01.377-.195.91.91 0 01.221.026c.07.017.13.056.182.117a.595.595 0 01.13.247c.043.104.07.243.078.416.017.312.03.59.039.832l.026.728c.009.234.013.481.013.741v1.976c0 .355-.004.706-.013 1.053l-.026 1.053c-.009.355-.022.728-.039 1.118-.009.208-.03.368-.065.481a.727.727 0 01-.13.26.282.282 0 01-.182.104.968.968 0 01-.234.026.574.574 0 01-.403-.156c-.113-.113-.178-.347-.195-.702zm6.957-4.732c-.32 0-.611.052-.871.156-.252.104-.538.26-.858.468v.806c0 .347-.005.728-.013 1.144l-.026 1.209a13.76 13.76 0 01-.052 1.001 3.023 3.023 0 01-.065.416.472.472 0 01-.091.221.252.252 0 01-.156.104 1.83 1.83 0 01-.247.013 2.15 2.15 0 01-.26-.013.355.355 0 01-.156-.091.584.584 0 01-.104-.221 2.581 2.581 0 01-.065-.39 15.075 15.075 0 01-.052-.624 193.13 193.13 0 01-.052-1.781v-.884c0-.442.004-.802.013-1.079.017-.277.043-.524.078-.741.052-.364.121-.594.208-.689a.451.451 0 01.35-.143c.218 0 .378.06.482.182.112.121.182.32.208.598a4.24 4.24 0 011.027-.663 2.804 2.804 0 011.144-.247c.373 0 .71.087 1.014.26.312.173.567.455.767.845.121.234.212.494.273.78.06.277.104.572.13.884l.026.416c.008.13.013.273.013.429.009.147.013.316.013.507v.676c0 .277-.004.537-.013.78a3.269 3.269 0 01-.078.637.846.846 0 01-.195.416.527.527 0 01-.39.143c-.399 0-.607-.19-.624-.572v-.325c0-.2-.005-.429-.013-.689 0-.26-.004-.524-.013-.793 0-.269-.005-.49-.013-.663a9.05 9.05 0 00-.04-.442 4.756 4.756 0 00-.051-.494 3.75 3.75 0 00-.078-.468 2.348 2.348 0 00-.13-.416c-.121-.286-.273-.468-.455-.546a1.47 1.47 0 00-.585-.117zm6.019 4.693a54.953 54.953 0 01-.052-1.937v-2.561c-.087.009-.19.013-.312.013h-.273c-.156 0-.3-.004-.43-.013a.944.944 0 01-.324-.078.513.513 0 01-.221-.182.68.68 0 01-.078-.351c0-.416.312-.624.936-.624h.35c.14 0 .256.009.352.026 0-.46.008-.828.026-1.105.017-.277.047-.49.09-.637.053-.156.118-.256.196-.299a.622.622 0 01.325-.078c.138 0 .251.048.338.143a.915.915 0 01.195.364c.052.147.082.312.09.494a5.6 5.6 0 01.027.533c0 .121-.005.234-.013.338v.26c.121-.035.247-.052.377-.052a5.65 5.65 0 01.377-.013c.32 0 .567.052.74.156.174.095.26.256.26.481 0 .139-.03.251-.09.338a.594.594 0 01-.247.182 1.216 1.216 0 01-.351.091c-.13.009-.273.013-.43.013h-.298c-.113 0-.217-.009-.312-.026v1.261c0 .381-.005.75-.013 1.105l-.026 1.04c-.009.347-.022.715-.04 1.105a2 2 0 01-.064.481.604.604 0 01-.117.26.348.348 0 01-.182.117c-.06.009-.135.013-.221.013a.574.574 0 01-.403-.156c-.104-.113-.165-.347-.182-.702zm7.835-1.547c-.304 0-.624-.022-.962-.065a5.06 5.06 0 01-1.08-.312c.079.529.295.927.65 1.196.365.269.885.403 1.56.403.243 0 .46-.013.65-.039.2-.035.373-.07.52-.104.148-.043.278-.078.39-.104a1.06 1.06 0 01.313-.052c.121 0 .238.039.35.117.113.07.17.19.17.364a.642.642 0 01-.273.533c-.174.139-.39.251-.65.338-.252.078-.52.13-.806.156a6.354 6.354 0 01-.754.052c-.512 0-.984-.07-1.417-.208a3.08 3.08 0 01-1.105-.624 2.94 2.94 0 01-.728-1.053c-.174-.416-.26-.901-.26-1.456 0-.537.082-1.014.247-1.43.173-.416.407-.767.702-1.053a2.934 2.934 0 011.04-.65 3.832 3.832 0 011.313-.221c.364 0 .715.048 1.053.143.346.095.65.238.91.429.268.19.48.433.637.728.164.286.247.624.247 1.014 0 .347-.065.641-.195.884s-.317.438-.56.585c-.233.147-.52.256-.857.325-.33.07-.698.104-1.105.104zm-.091-3.016c-.234 0-.46.03-.676.091a1.703 1.703 0 00-.598.273 1.53 1.53 0 00-.442.494c-.122.2-.204.45-.247.754.33.147.65.251.962.312.312.052.641.078.988.078.511 0 .888-.06 1.13-.182.252-.13.378-.36.378-.689 0-.303-.117-.568-.351-.793-.226-.225-.607-.338-1.144-.338zm5.02 4.615a12.074 12.074 0 01-.065-1.105 80.23 80.23 0 01-.013-1.573V49.06a7.9 7.9 0 01.078-.988c.043-.355.108-.585.195-.689a.472.472 0 01.364-.156c.104 0 .195.009.273.026.087.017.16.056.22.117.07.052.122.13.157.234.034.104.052.247.052.429 0 .035.004.07.013.104v.117a.545.545 0 01.013.13c.234-.295.498-.546.793-.754a1.774 1.774 0 011.027-.312c.511 0 .767.212.767.637a.72.72 0 01-.377.65c-.113.06-.247.108-.403.143-.147.035-.312.07-.494.104a2.314 2.314 0 00-.78.299c-.243.139-.407.316-.494.533v.364c.008.078.013.143.013.195.008.052.013.108.013.169v.286c0 .442-.009.858-.026 1.248-.017.381-.035.797-.052 1.248a1.582 1.582 0 01-.078.481.618.618 0 01-.143.26.282.282 0 01-.182.104.856.856 0 01-.208.026c-.243 0-.407-.052-.494-.156-.078-.113-.135-.347-.17-.702zm8.8-4.745c-.32 0-.61.052-.87.156-.252.104-.538.26-.859.468v.806a53 53 0 01-.013 1.144l-.026 1.209c-.008.399-.026.732-.052 1.001a3.023 3.023 0 01-.065.416.473.473 0 01-.09.221.252.252 0 01-.157.104 1.83 1.83 0 01-.247.013c-.104 0-.19-.004-.26-.013a.354.354 0 01-.156-.091.584.584 0 01-.104-.221 2.568 2.568 0 01-.065-.39 14.9 14.9 0 01-.052-.624l-.026-.845-.026-.936v-.884c0-.442.004-.802.013-1.079.018-.277.044-.524.078-.741.052-.364.121-.594.208-.689a.451.451 0 01.351-.143c.217 0 .377.06.481.182.113.121.182.32.208.598a4.24 4.24 0 011.027-.663 2.804 2.804 0 011.144-.247c.373 0 .71.087 1.014.26.312.173.568.455.767.845.121.234.213.494.273.78.06.277.104.572.13.884l.026.416c.009.13.013.273.013.429.009.147.013.316.013.507v.676c0 .277-.004.537-.013.78a3.284 3.284 0 01-.078.637.848.848 0 01-.195.416.527.527 0 01-.39.143c-.398 0-.606-.19-.624-.572v-.325c0-.2-.004-.429-.013-.689 0-.26-.004-.524-.013-.793 0-.269-.004-.49-.013-.663a9.307 9.307 0 00-.039-.442 4.784 4.784 0 00-.052-.494 3.75 3.75 0 00-.078-.468 2.357 2.357 0 00-.13-.416c-.121-.286-.273-.468-.455-.546a1.47 1.47 0 00-.585-.117zm8.095 3.146c-.304 0-.624-.022-.962-.065a5.05 5.05 0 01-1.079-.312c.078.529.294.927.65 1.196.364.269.884.403 1.56.403.242 0 .459-.013.65-.039.199-.035.372-.07.52-.104.147-.043.277-.078.39-.104.112-.035.216-.052.312-.052a.61.61 0 01.351.117c.112.07.169.19.169.364a.642.642 0 01-.273.533c-.174.139-.39.251-.65.338-.252.078-.52.13-.806.156a6.362 6.362 0 01-.754.052c-.512 0-.984-.07-1.417-.208a3.078 3.078 0 01-1.105-.624 2.935 2.935 0 01-.728-1.053c-.174-.416-.26-.901-.26-1.456 0-.537.082-1.014.246-1.43.174-.416.408-.767.703-1.053a2.926 2.926 0 011.04-.65 3.83 3.83 0 011.313-.221c.364 0 .715.048 1.053.143.346.095.65.238.91.429.268.19.481.433.637.728.164.286.247.624.247 1.014 0 .347-.065.641-.195.884s-.317.438-.559.585c-.234.147-.52.256-.858.325a5.39 5.39 0 01-1.105.104zm-.091-3.016c-.234 0-.46.03-.676.091a1.7 1.7 0 00-.598.273 1.522 1.522 0 00-.442.494c-.122.2-.204.45-.247.754.329.147.65.251.962.312.312.052.641.078.988.078.511 0 .888-.06 1.131-.182.251-.13.377-.36.377-.689 0-.303-.117-.568-.351-.793-.226-.225-.607-.338-1.144-.338zm6.073 4.563a53.306 53.306 0 01-.052-1.937v-2.561a3.197 3.197 0 01-.312.013h-.273c-.156 0-.299-.004-.429-.013a.938.938 0 01-.325-.078.509.509 0 01-.221-.182.68.68 0 01-.078-.351c0-.416.312-.624.936-.624h.351c.138 0 .255.009.351.026 0-.46.008-.828.026-1.105.017-.277.047-.49.091-.637.052-.156.117-.256.195-.299a.62.62 0 01.325-.078c.138 0 .251.048.338.143a.933.933 0 01.195.364c.052.147.082.312.091.494.017.182.026.36.026.533a4.4 4.4 0 01-.013.338v.26c.121-.035.247-.052.377-.052a5.44 5.44 0 01.377-.013c.32 0 .567.052.741.156.173.095.26.256.26.481a.582.582 0 01-.091.338.596.596 0 01-.247.182 1.228 1.228 0 01-.351.091c-.13.009-.273.013-.429.013h-.299c-.113 0-.217-.009-.312-.026v1.261c0 .381-.005.75-.013 1.105l-.026 1.04c-.009.347-.022.715-.039 1.105a2.058 2.058 0 01-.065.481.604.604 0 01-.117.26.35.35 0 01-.182.117 1.6 1.6 0 01-.221.013.573.573 0 01-.403-.156c-.104-.113-.165-.347-.182-.702zm10.289.897a.755.755 0 01-.338-.065.555.555 0 01-.182-.195.82.82 0 01-.091-.273 3.82 3.82 0 01-.039-.351 2.657 2.657 0 01-.845.676c-.338.182-.772.273-1.3.273-.338 0-.685-.048-1.04-.143a2.614 2.614 0 01-.949-.52 2.8 2.8 0 01-.702-1.001c-.182-.416-.273-.94-.273-1.573 0-.494.06-.958.182-1.391.121-.433.303-.81.546-1.131a2.7 2.7 0 01.936-.78c.372-.19.81-.286 1.313-.286.442 0 .836.082 1.183.247.346.156.658.416.936.78 0-.104.004-.208.013-.312a.982.982 0 01.065-.299.481.481 0 01.195-.221.599.599 0 01.351-.091.53.53 0 01.364.156c.112.104.177.33.195.676.026.46.043.871.052 1.235.017.364.026.741.026 1.131 0 .477-.005.914-.013 1.313-.009.399-.031.823-.065 1.274-.018.2-.044.36-.078.481a.742.742 0 01-.104.26.317.317 0 01-.156.104.666.666 0 01-.182.026zm-.702-3.302c0-.45-.07-.819-.208-1.105a1.67 1.67 0 00-.507-.663 1.677 1.677 0 00-.65-.338 2.603 2.603 0 00-.65-.091c-.312 0-.581.056-.806.169a1.453 1.453 0 00-.533.468c-.139.19-.243.42-.312.689-.061.26-.091.546-.091.858 0 .763.164 1.326.494 1.69.338.364.793.546 1.365.546.338 0 .624-.056.858-.169.242-.121.437-.282.585-.481a1.9 1.9 0 00.338-.702c.078-.277.117-.568.117-.871zm12.794 2.587a33.775 33.775 0 01-.286-.715 34.871 34.871 0 00-.312-.871l-.819.026h-1.885c-.303 0-.58-.004-.832-.013-.104.303-.203.59-.299.858-.095.269-.186.507-.273.715-.173.442-.424.663-.754.663a.61.61 0 01-.351-.117.397.397 0 01-.156-.338c0-.147.026-.338.078-.572.052-.243.117-.498.195-.767.087-.277.178-.559.273-.845.096-.295.187-.568.273-.819.087-.277.208-.628.364-1.053.165-.433.338-.884.52-1.352.182-.468.364-.927.546-1.378.182-.46.347-.858.494-1.196.035-.087.078-.182.13-.286.052-.113.113-.217.182-.312.078-.095.161-.178.247-.247.096-.07.2-.104.312-.104.113 0 .217.039.312.117.096.07.178.156.247.26.078.104.143.212.195.325.061.113.109.212.143.299.139.347.295.745.468 1.196.182.45.36.906.533 1.365.182.46.351.897.507 1.313.156.416.282.767.377 1.053.078.251.165.52.26.806.104.286.2.568.286.845.087.277.156.537.208.78.061.234.091.425.091.572 0 .147-.056.26-.169.338a.55.55 0 01-.338.117.671.671 0 01-.429-.156c-.13-.113-.242-.282-.338-.507zm-2.301-2.86c.208 0 .416.004.624.013.208 0 .416.004.624.013l-.312-.91-.299-.871a38.19 38.19 0 00-.247-.767l-.182-.637a1.114 1.114 0 00-.117-.273c-.043-.07-.099-.104-.169-.104-.069 0-.125.039-.169.117-.043.07-.082.16-.117.273-.104.355-.251.819-.442 1.391-.182.563-.377 1.157-.585 1.781.234-.009.468-.013.702-.013.234-.009.464-.013.689-.013zm9.46-6.279a5.431 5.431 0 00-.221.572c-.069.225-.134.46-.195.702a6.36 6.36 0 00-.13.65h-1.131v-.117c.044-.156.117-.351.221-.585.104-.234.226-.472.364-.715a5.27 5.27 0 01.455-.663h.637v.156zm-1.144 2.704c.46 0 .871.087 1.235.26.373.173.689.438.949.793h.065l.156-.923h.91v7.085c0 .997-.255 1.746-.767 2.249-.502.503-1.287.754-2.353.754-1.022 0-1.859-.147-2.509-.442v-1.053c.685.364 1.543.546 2.574.546.598 0 1.066-.178 1.404-.533.347-.347.52-.823.52-1.43v-.273a11.706 11.706 0 01.039-.858h-.052c-.468.702-1.187 1.053-2.158 1.053-.901 0-1.607-.316-2.119-.949-.502-.633-.754-1.517-.754-2.652 0-1.11.252-1.989.754-2.639.512-.659 1.214-.988 2.106-.988zm.156.962c-.58 0-1.031.234-1.352.702-.32.46-.481 1.118-.481 1.976 0 .858.156 1.517.468 1.976.321.45.785.676 1.391.676.702 0 1.214-.186 1.534-.559.321-.381.481-.992.481-1.833v-.273c0-.953-.164-1.634-.494-2.041-.329-.416-.845-.624-1.547-.624zm8.973 3.744c-.303 0-.624-.022-.962-.065a5.067 5.067 0 01-1.079-.312c.078.529.295.927.65 1.196.364.269.884.403 1.56.403.243 0 .46-.013.65-.039.2-.035.373-.07.52-.104.148-.043.278-.078.39-.104a1.07 1.07 0 01.312-.052c.122 0 .239.039.351.117.113.07.169.19.169.364a.642.642 0 01-.273.533c-.173.139-.39.251-.65.338-.251.078-.52.13-.806.156a6.348 6.348 0 01-.754.052 4.63 4.63 0 01-1.417-.208 3.086 3.086 0 01-1.105-.624 2.949 2.949 0 01-.728-1.053c-.173-.416-.26-.901-.26-1.456 0-.537.083-1.014.247-1.43.174-.416.408-.767.702-1.053a2.943 2.943 0 011.04-.65 3.835 3.835 0 011.313-.221c.364 0 .715.048 1.053.143.347.095.65.238.91.429.269.19.481.433.637.728.165.286.247.624.247 1.014 0 .347-.065.641-.195.884s-.316.438-.559.585c-.234.147-.52.256-.858.325-.329.07-.697.104-1.105.104zm-.091-3.016c-.234 0-.459.03-.676.091a1.71 1.71 0 00-.598.273c-.173.121-.32.286-.442.494-.121.2-.203.45-.247.754.33.147.65.251.962.312.312.052.642.078.988.078.512 0 .889-.06 1.131-.182.252-.13.377-.36.377-.689 0-.303-.117-.568-.351-.793-.225-.225-.606-.338-1.144-.338zm8.01-.13c-.32 0-.611.052-.871.156-.251.104-.537.26-.858.468v.806a53 53 0 01-.013 1.144l-.026 1.209c-.008.399-.026.732-.052 1.001a2.977 2.977 0 01-.065.416.463.463 0 01-.091.221.249.249 0 01-.156.104c-.06.009-.143.013-.247.013-.104 0-.19-.004-.26-.013a.362.362 0 01-.156-.091.589.589 0 01-.104-.221 2.66 2.66 0 01-.065-.39 16.843 16.843 0 01-.052-.624l-.026-.845a292.37 292.37 0 00-.026-.936v-.884c0-.442.005-.802.013-1.079a8.29 8.29 0 01.078-.741c.052-.364.122-.594.208-.689a.452.452 0 01.351-.143c.217 0 .377.06.481.182.113.121.182.32.208.598a4.245 4.245 0 011.027-.663 2.805 2.805 0 011.144-.247c.373 0 .711.087 1.014.26.312.173.568.455.767.845.122.234.213.494.273.78.061.277.104.572.13.884l.026.416c.009.13.013.273.013.429.009.147.013.316.013.507v.676c0 .277-.004.537-.013.78a3.179 3.179 0 01-.078.637.836.836 0 01-.195.416.526.526 0 01-.39.143c-.398 0-.606-.19-.624-.572v-.325c0-.2-.004-.429-.013-.689 0-.26-.004-.524-.013-.793a7.77 7.77 0 00-.052-1.105 4.598 4.598 0 00-.052-.494 3.642 3.642 0 00-.078-.468 2.3 2.3 0 00-.13-.416c-.121-.286-.273-.468-.455-.546a1.47 1.47 0 00-.585-.117zm6.019 4.693a55.69 55.69 0 01-.052-1.937v-2.561c-.086.009-.19.013-.312.013h-.273c-.156 0-.299-.004-.429-.013a.95.95 0 01-.325-.078.515.515 0 01-.221-.182.68.68 0 01-.078-.351c0-.416.312-.624.936-.624h.351c.139 0 .256.009.351.026 0-.46.009-.828.026-1.105a3.14 3.14 0 01.091-.637c.052-.156.117-.256.195-.299a.623.623 0 01.325-.078c.139 0 .252.048.338.143a.907.907 0 01.195.364c.052.147.083.312.091.494a5.41 5.41 0 01.013.871v.26c.122-.035.247-.052.377-.052.13-.009.256-.013.377-.013.321 0 .568.052.741.156.174.095.26.256.26.481 0 .139-.03.251-.091.338a.59.59 0 01-.247.182 1.21 1.21 0 01-.351.091c-.13.009-.273.013-.429.013h-.299a1.76 1.76 0 01-.312-.026v1.261c0 .381-.004.75-.013 1.105l-.026 1.04c-.008.347-.021.715-.039 1.105-.008.208-.03.368-.065.481a.604.604 0 01-.117.26.346.346 0 01-.182.117 1.58 1.58 0 01-.221.013.574.574 0 01-.403-.156c-.104-.113-.164-.347-.182-.702zm11.095-6.123V54h-.936l-.169-.923h-.052a2.02 2.02 0 01-.936.806 3.3 3.3 0 01-1.274.247c-.84 0-1.473-.2-1.898-.598-.424-.407-.637-1.053-.637-1.937v-4.563h1.157v4.485c0 1.11.516 1.664 1.547 1.664.772 0 1.305-.217 1.599-.65.304-.433.455-1.057.455-1.872v-3.627h1.144zm-.988-1.833v.923h-3.861v-.923h3.861zm3.863 8.008a12.443 12.443 0 01-.065-1.105 86.139 86.139 0 01-.013-1.573V49.06c.009-.373.035-.702.078-.988.044-.355.109-.585.195-.689a.474.474 0 01.364-.156c.104 0 .195.009.273.026a.418.418 0 01.221.117c.07.052.122.13.156.234.035.104.052.247.052.429 0 .035.005.07.013.104v.117a.53.53 0 01.013.13 3.85 3.85 0 01.793-.754 1.776 1.776 0 011.027-.312c.512 0 .767.212.767.637a.683.683 0 01-.104.39.71.71 0 01-.273.26c-.112.06-.247.108-.403.143-.147.035-.312.07-.494.104a2.318 2.318 0 00-.78.299c-.242.139-.407.316-.494.533v.364c.009.078.013.143.013.195a.994.994 0 01.013.169v.286c0 .442-.008.858-.026 1.248-.017.381-.034.797-.052 1.248a1.54 1.54 0 01-.078.481.608.608 0 01-.143.26.28.28 0 01-.182.104.85.85 0 01-.208.026c-.242 0-.407-.052-.494-.156-.078-.113-.134-.347-.169-.702zm10.949.845a.758.758 0 01-.338-.065.555.555 0 01-.182-.195.844.844 0 01-.091-.273 4.671 4.671 0 01-.039-.351 2.646 2.646 0 01-.845.676c-.338.182-.771.273-1.3.273-.338 0-.685-.048-1.04-.143a2.614 2.614 0 01-.949-.52 2.8 2.8 0 01-.702-1.001c-.182-.416-.273-.94-.273-1.573 0-.494.061-.958.182-1.391.121-.433.303-.81.546-1.131a2.7 2.7 0 01.936-.78c.373-.19.81-.286 1.313-.286.442 0 .836.082 1.183.247.347.156.659.416.936.78 0-.104.004-.208.013-.312.009-.113.03-.212.065-.299a.481.481 0 01.195-.221.603.603 0 01.351-.091.53.53 0 01.364.156c.113.104.178.33.195.676.026.46.043.871.052 1.235.017.364.026.741.026 1.131 0 .477-.004.914-.013 1.313-.009.399-.03.823-.065 1.274-.017.2-.043.36-.078.481a.742.742 0 01-.104.26.309.309 0 01-.156.104.661.661 0 01-.182.026zm-.702-3.302c0-.45-.069-.819-.208-1.105a1.67 1.67 0 00-.507-.663 1.67 1.67 0 00-.65-.338 2.603 2.603 0 00-.65-.091c-.312 0-.581.056-.806.169a1.46 1.46 0 00-.533.468c-.139.19-.243.42-.312.689-.061.26-.091.546-.091.858 0 .763.165 1.326.494 1.69.338.364.793.546 1.365.546.338 0 .624-.056.858-.169a1.6 1.6 0 00.585-.481c.156-.2.269-.433.338-.702.078-.277.117-.568.117-.871z" fill="#F4522F" fill-opacity=".41"/><g clip-path="url(#clip0)" fill="#F4522F"><path d="M26.798 48.742c-.289 0-.578-.11-.8-.33l-14.52-14.52a1.131 1.131 0 01-.046-1.553l10.884-12.191c7.607-8.9 19.995-14.66 30.797-14.476a1.13 1.13 0 011.103 1.103c.25 10.808-5.574 23.19-14.497 30.813L27.55 48.455a1.119 1.119 0 01-.75.287zM13.83 33.05l13.01 13.01 11.395-10.17c8.147-6.964 13.559-18.062 13.726-27.96-9.898.165-20.994 5.576-27.944 13.705L13.83 33.05z"/><path d="M31.125 57.012a1.05 1.05 0 01-.323-.05c-.407-.136-.741-.448-.8-.872l-1.55-10.816a1.132 1.132 0 01.958-1.279 1.124 1.124 0 011.279.958l1.21 8.45c3.96-4.733 6.16-10.734 6.16-16.852a1.13 1.13 0 012.26 0c0 7.485-3.033 14.812-8.32 20.097a1.27 1.27 0 01-.874.364zM14.778 31.45a.967.967 0 01-.16-.012l-10.815-1.55a1.128 1.128 0 01-.633-1.923c5.361-5.361 12.686-8.393 20.171-8.393a1.13 1.13 0 010 2.26c-6.147 0-12.18 2.22-16.863 6.156l8.46 1.213c.618.09 1.047.66.959 1.279-.084.563-.567.97-1.119.97zm23.932-4.624a5.631 5.631 0 01-3.995-1.651 5.66 5.66 0 010-7.99 5.655 5.655 0 017.99 0 5.66 5.66 0 010 7.99 5.629 5.629 0 01-3.995 1.651zm0-9.032c-.868 0-1.738.33-2.398.99a3.398 3.398 0 000 4.794 3.4 3.4 0 004.795 0 3.398 3.398 0 000-4.795 3.395 3.395 0 00-2.397-.99zm3.194 6.583h.023-.023zM1.13 59.89a1.128 1.128 0 01-1.082-1.453c.37-1.236 3.689-12.157 6.106-14.575 2.723-2.722 7.154-2.725 9.876 0a6.991 6.991 0 010 9.876c-2.417 2.417-13.34 5.736-14.575 6.107-.108.03-.217.045-.325.045zm9.963-15.813c-1.21 0-2.42.46-3.341 1.38-1.304 1.306-3.473 7.137-4.905 11.586 4.446-1.432 10.28-3.601 11.583-4.905a4.73 4.73 0 000-6.68 4.706 4.706 0 00-3.337-1.381z"/></g><defs><clipPath id="clip0"><path fill="#fff" transform="translate(0 5.665)" d="M0 0h54.225v54.225H0z"/></clipPath></defs></svg>