<svg width="220" height="60" fill="none" xmlns="http://www.w3.org/2000/svg"><path d="M61.625 36.83a87.848 87.848 0 01-.105-2.625c0-.91-.012-1.89-.035-2.94-.023-1.05-.035-2.182-.035-3.395v-4.13c0-1.657.012-3.068.035-4.235.023-1.19.093-2.158.21-2.905.117-.747.292-1.295.525-1.645.257-.35.595-.525 1.015-.525.21 0 .408.023.595.07a.94.94 0 01.49.315c.14.14.257.362.35.665.117.28.187.653.21 1.12.047.84.082 1.587.105 2.24l.07 1.96c.023.63.035 1.295.035 1.995v5.32c0 .957-.012 1.902-.035 2.835l-.07 2.835c-.023.957-.058 1.96-.105 3.01-.023.56-.082.992-.175 1.295-.093.303-.21.537-.35.7a.76.76 0 01-.49.28 2.59 2.59 0 01-.63.07c-.42 0-.782-.14-1.085-.42-.303-.303-.478-.933-.525-1.89zm21.04-16.1c.49 0 1.108.047 1.855.14a9.16 9.16 0 012.135.455c.677.21 1.26.513 1.75.91s.735.898.735 1.505c0 .35-.105.653-.315.91-.187.257-.49.385-.91.385-.303 0-.653-.047-1.05-.14l-1.26-.315c-.443-.14-.933-.257-1.47-.35a9.197 9.197 0 00-1.645-.14c-.98 0-1.785.152-2.415.455-.607.303-.91.782-.91 1.435 0 .373.105.688.315.945.233.257.537.49.91.7a8.4 8.4 0 001.365.49c.537.14 1.097.28 1.68.42.723.187 1.435.397 2.135.63.723.233 1.365.56 1.925.98.56.397 1.015.91 1.365 1.54.35.607.525 1.365.525 2.275 0 1.727-.653 3.103-1.96 4.13-1.307 1.003-3.232 1.505-5.775 1.505-.56 0-1.225-.047-1.995-.14a9.186 9.186 0 01-2.17-.455 5.194 5.194 0 01-1.75-.91c-.467-.42-.7-.968-.7-1.645 0-.467.105-.817.315-1.05.233-.257.513-.385.84-.385.257 0 .525.082.805.245.28.163.618.338 1.015.525.397.187.875.362 1.435.525.56.163 1.248.245 2.065.245.303 0 .7-.012 1.19-.035.49-.047.968-.152 1.435-.315.49-.163.898-.385 1.225-.665.35-.303.525-.723.525-1.26 0-.42-.117-.77-.35-1.05a2.85 2.85 0 00-.945-.77 6.498 6.498 0 00-1.4-.525 49.034 49.034 0 00-1.645-.49 41.165 41.165 0 01-2.065-.63 8.069 8.069 0 01-1.855-.91 4.593 4.593 0 01-1.365-1.4c-.35-.583-.525-1.295-.525-2.135 0-.793.163-1.528.49-2.205.327-.7.793-1.307 1.4-1.82.607-.513 1.33-.91 2.17-1.19.863-.28 1.82-.42 2.87-.42zm20.579 23.31c0 .443-.012.863-.035 1.26-.024.42-.105.793-.245 1.12a1.587 1.587 0 01-.56.77c-.234.21-.572.315-1.015.315-.514 0-.945-.187-1.295-.56-.327-.35-.514-.98-.56-1.89a143.02 143.02 0 00-.105-2.135c-.047-.84-.094-1.727-.14-2.66-.024-.933-.059-1.867-.105-2.8-.024-.933-.035-1.797-.035-2.59 0-2.73.186-4.982.56-6.755.396-1.773.98-3.185 1.75-4.235.77-1.05 1.715-1.785 2.835-2.205 1.143-.42 2.461-.63 3.955-.63 1.19 0 2.31.187 3.36.56 1.05.35 1.96.91 2.73 1.68.793.747 1.423 1.727 1.89 2.94.466 1.19.7 2.625.7 4.305 0 1.4-.245 2.637-.735 3.71a7.721 7.721 0 01-1.96 2.73c-.84.723-1.832 1.283-2.975 1.68a11.34 11.34 0 01-3.605.56c-1.097 0-2.089-.222-2.975-.665-.864-.467-1.482-.968-1.855-1.505.116 1.307.21 2.52.28 3.64.093 1.12.14 2.24.14 3.36zm4.83-19.495c-.817 0-1.529.14-2.135.42a3.877 3.877 0 00-1.435 1.155c-.374.49-.654 1.073-.84 1.75a9.352 9.352 0 00-.245 2.205c0 .77.07 1.505.21 2.205.163.677.42 1.272.77 1.785.35.513.816.922 1.4 1.225.583.303 1.295.455 2.135.455.653 0 1.283-.082 1.89-.245a4.25 4.25 0 001.61-.91c.49-.42.875-.98 1.155-1.68.303-.7.455-1.575.455-2.625 0-1.073-.152-1.972-.455-2.695-.28-.747-.665-1.342-1.155-1.785a3.86 3.86 0 00-1.61-.98 5.718 5.718 0 00-1.75-.28zm33.14 14.595c-.373 0-.677-.058-.91-.175a1.507 1.507 0 01-.49-.525 2.272 2.272 0 01-.245-.735 11.4 11.4 0 01-.105-.945c-.583.723-1.342 1.33-2.275 1.82-.91.49-2.077.735-3.5.735-.91 0-1.843-.128-2.8-.385a7.05 7.05 0 01-2.555-1.4c-.77-.677-1.4-1.575-1.89-2.695-.49-1.12-.735-2.532-.735-4.235 0-1.33.163-2.578.49-3.745.327-1.167.817-2.182 1.47-3.045a7.33 7.33 0 012.52-2.1c1.003-.513 2.182-.77 3.535-.77 1.19 0 2.252.222 3.185.665.933.42 1.773 1.12 2.52 2.1 0-.28.012-.56.035-.84.023-.303.082-.572.175-.805.117-.257.292-.455.525-.595.233-.163.548-.245.945-.245.35 0 .677.14.98.42.303.28.478.887.525 1.82.07 1.237.117 2.345.14 3.325.047.98.07 1.995.07 3.045 0 1.283-.012 2.462-.035 3.535a62.584 62.584 0 01-.175 3.43c-.047.537-.117.968-.21 1.295-.07.303-.163.537-.28.7a.842.842 0 01-.42.28c-.163.047-.327.07-.49.07zm-1.89-8.89c0-1.213-.187-2.205-.56-2.975-.35-.77-.805-1.365-1.365-1.785a4.505 4.505 0 00-1.75-.91 7.005 7.005 0 00-1.75-.245c-.84 0-1.563.152-2.17.455a3.93 3.93 0 00-1.435 1.26c-.373.513-.653 1.132-.84 1.855-.163.7-.245 1.47-.245 2.31 0 2.053.443 3.57 1.33 4.55.91.98 2.135 1.47 3.675 1.47.91 0 1.68-.152 2.31-.455a4.326 4.326 0 001.575-1.295c.42-.537.723-1.167.91-1.89.21-.747.315-1.528.315-2.345zm22.408-9.1c.677 0 1.354.058 2.03.175.7.117 1.33.28 1.89.49.56.21 1.015.467 1.365.77.35.303.525.653.525 1.05 0 1.027-.583 1.54-1.75 1.54-.28 0-.548-.035-.805-.105a5.224 5.224 0 00-.84-.245 9.384 9.384 0 00-1.225-.245c-.49-.093-1.096-.14-1.82-.14-1.54 0-2.73.525-3.57 1.575-.84 1.05-1.26 2.415-1.26 4.095 0 1.843.42 3.325 1.26 4.445.864 1.12 2.077 1.68 3.64 1.68.98 0 1.774-.082 2.38-.245.607-.163 1.097-.35 1.47-.56.397-.21.712-.397.945-.56.257-.163.537-.245.84-.245.42 0 .747.093.98.28.257.163.385.513.385 1.05 0 .56-.221 1.05-.665 1.47-.42.42-.956.77-1.61 1.05-.653.28-1.365.49-2.135.63-.746.14-1.435.21-2.065.21-2.823 0-5.04-.782-6.65-2.345-1.61-1.563-2.415-3.78-2.415-6.65 0-1.237.187-2.403.56-3.5a8.5 8.5 0 011.75-2.94c.77-.84 1.715-1.505 2.835-1.995 1.144-.49 2.462-.735 3.955-.735zm24.328 11.41c-.817 0-1.68-.058-2.59-.175-.887-.14-1.855-.42-2.905-.84.21 1.423.793 2.497 1.75 3.22.98.723 2.38 1.085 4.2 1.085.653 0 1.237-.035 1.75-.105a24.624 24.624 0 001.4-.28c.397-.117.747-.21 1.05-.28a2.87 2.87 0 01.84-.14c.327 0 .642.105.945.315.303.187.455.513.455.98 0 .583-.245 1.062-.735 1.435-.467.373-1.05.677-1.75.91-.677.21-1.4.35-2.17.42-.77.093-1.447.14-2.03.14-1.377 0-2.648-.187-3.815-.56-1.143-.373-2.135-.933-2.975-1.68-.84-.77-1.493-1.715-1.96-2.835-.467-1.12-.7-2.427-.7-3.92 0-1.447.222-2.73.665-3.85.467-1.12 1.097-2.065 1.89-2.835a7.903 7.903 0 012.8-1.75c1.097-.397 2.275-.595 3.535-.595.98 0 1.925.128 2.835.385.933.257 1.75.642 2.45 1.155a5.56 5.56 0 011.715 1.96c.443.77.665 1.68.665 2.73 0 .933-.175 1.727-.525 2.38a4.065 4.065 0 01-1.505 1.575c-.63.397-1.4.688-2.31.875-.887.187-1.878.28-2.975.28zm-.245-8.12a6.73 6.73 0 00-1.82.245 4.59 4.59 0 00-1.61.735c-.467.327-.863.77-1.19 1.33-.327.537-.548 1.213-.665 2.03.887.397 1.75.677 2.59.84.84.14 1.727.21 2.66.21 1.377 0 2.392-.163 3.045-.49.677-.35 1.015-.968 1.015-1.855 0-.817-.315-1.528-.945-2.135-.607-.607-1.633-.91-3.08-.91z" fill="#F4522F"/><path d="M60.274 44.718h1.092v5.096a39.63 39.63 0 01-.052 1.937 7.636 7.636 0 01-.039.65h.052l5.109-7.683h1.3V54h-1.092v-5.044c0-.32.004-.663.013-1.027a106.134 106.134 0 01.091-1.651h-.052L61.574 54h-1.3v-9.282zm11.864 2.314v2.899h3.782v-2.899h1.144V54h-1.143v-3.107h-3.784V54h-1.144v-6.968h1.145zm12.853.962h-2.275V54h-1.131v-6.006h-2.25v-.962h5.656v.962zm4.847-1.092c.598 0 1.109.13 1.534.39a2.5 2.5 0 01.987 1.105c.235.468.352 1.018.352 1.651v.689h-4.772c.018.789.217 1.391.599 1.807.39.407.931.611 1.624.611.442 0 .832-.039 1.17-.117a7.057 7.057 0 001.067-.364v1.001a5.113 5.113 0 01-1.053.338 5.69 5.69 0 01-1.236.117c-.658 0-1.243-.134-1.754-.403a2.863 2.863 0 01-1.183-1.196c-.278-.537-.416-1.192-.416-1.963 0-.763.125-1.417.376-1.963.26-.546.62-.966 1.08-1.261.468-.295 1.01-.442 1.625-.442zm-.013.936c-.547 0-.98.178-1.3.533-.313.347-.499.832-.56 1.456h3.55c-.01-.59-.148-1.066-.416-1.43-.27-.373-.694-.559-1.275-.559zm8.884-.936c.858 0 1.547.299 2.067.897.529.598.793 1.5.793 2.704 0 1.187-.264 2.089-.793 2.704-.52.615-1.213.923-2.08.923-.537 0-.983-.1-1.339-.299a2.782 2.782 0 01-.819-.715h-.078a12.645 12.645 0 01.078 1.144v2.86h-1.144V47.032h.936l.156.949h.052c.208-.303.481-.559.82-.767.337-.208.788-.312 1.351-.312zm-.208.962c-.71 0-1.213.2-1.508.598-.286.399-.437 1.005-.455 1.82v.221c0 .858.14 1.521.416 1.989.286.46.81.689 1.573.689.425 0 .772-.117 1.04-.351.278-.234.481-.55.611-.949.139-.407.208-.871.208-1.391 0-.797-.156-1.434-.468-1.911-.303-.477-.775-.715-1.417-.715zm6.945-.832v2.899h3.783v-2.899h1.144V54h-1.144v-3.107h-3.783V54h-1.144v-6.968h1.144zm10.735-.13c.598 0 1.109.13 1.534.39.433.26.762.628.988 1.105.234.468.351 1.018.351 1.651v.689h-4.771c.017.789.216 1.391.598 1.807.39.407.931.611 1.625.611.442 0 .832-.039 1.17-.117a7.083 7.083 0 001.066-.364v1.001a5.14 5.14 0 01-1.053.338 5.698 5.698 0 01-1.235.117c-.659 0-1.244-.134-1.755-.403a2.86 2.86 0 01-1.183-1.196c-.278-.537-.416-1.192-.416-1.963 0-.763.125-1.417.377-1.963.26-.546.619-.966 1.079-1.261.468-.295 1.009-.442 1.625-.442zm-.013.936c-.546 0-.98.178-1.3.533-.312.347-.499.832-.559 1.456h3.549c-.009-.59-.148-1.066-.416-1.43-.269-.373-.694-.559-1.274-.559zm10.38.156h-2.275V54h-1.131v-6.006h-2.249v-.962h5.655v.962zm8.548-1.079c.849 0 1.478.186 1.885.559.407.373.611.966.611 1.781V54h-.832l-.221-.988h-.052c-.303.381-.624.663-.962.845-.329.182-.789.273-1.378.273-.633 0-1.157-.165-1.573-.494-.416-.338-.624-.862-.624-1.573 0-.693.273-1.226.819-1.599.546-.381 1.387-.59 2.522-.624l1.183-.039v-.416c0-.58-.126-.984-.377-1.209-.251-.225-.607-.338-1.066-.338a3.18 3.18 0 00-1.04.169 6.834 6.834 0 00-.923.364l-.351-.858a5 5 0 011.079-.416 4.619 4.619 0 011.3-.182zm.338 3.718c-.867.035-1.469.173-1.807.416-.329.243-.494.585-.494 1.027 0 .39.117.676.351.858.243.182.55.273.923.273.589 0 1.079-.16 1.469-.481.39-.33.585-.832.585-1.508v-.624l-1.027.039zm9.471-3.601v.962h-3.107V54h-1.144v-6.968h4.251zm4.847-.13c.598 0 1.11.13 1.534.39.434.26.763.628.988 1.105.234.468.351 1.018.351 1.651v.689h-4.771c.018.789.217 1.391.598 1.807.39.407.932.611 1.625.611.442 0 .832-.039 1.17-.117a7.045 7.045 0 001.066-.364v1.001a5.102 5.102 0 01-1.053.338 5.685 5.685 0 01-1.235.117c-.658 0-1.243-.134-1.755-.403a2.867 2.867 0 01-1.183-1.196c-.277-.537-.416-1.192-.416-1.963 0-.763.126-1.417.377-1.963.26-.546.62-.966 1.079-1.261.468-.295 1.01-.442 1.625-.442zm-.013.936c-.546 0-.979.178-1.3.533-.312.347-.498.832-.559 1.456h3.549c-.008-.59-.147-1.066-.416-1.43-.268-.373-.693-.559-1.274-.559zm6.714-.806v2.899h3.783v-2.899h1.144V54h-1.144v-3.107h-3.783V54h-1.144v-6.968h1.144zm10.839 7.098c-.616 0-1.166-.126-1.651-.377-.477-.251-.854-.641-1.131-1.17-.269-.529-.403-1.205-.403-2.028 0-.858.143-1.556.429-2.093.286-.537.671-.932 1.157-1.183.494-.251 1.053-.377 1.677-.377.355 0 .697.039 1.027.117.329.07.598.156.806.26l-.351.949a6.78 6.78 0 00-.728-.221 3.235 3.235 0 00-.78-.104c-1.37 0-2.054.88-2.054 2.639 0 .84.164 1.486.494 1.937.338.442.836.663 1.495.663.381 0 .715-.039 1.001-.117.294-.078.563-.173.806-.286v1.014a3.073 3.073 0 01-.78.273c-.278.07-.616.104-1.014.104zm9.171-6.136h-2.275V54h-1.131v-6.006h-2.249v-.962h5.655v.962zm7.885.793c0 .433-.13.771-.39 1.014s-.593.407-1.001.494v.052c.434.06.811.217 1.131.468.321.243.481.624.481 1.144 0 .59-.221 1.079-.663 1.469-.433.381-1.152.572-2.158.572h-3.003v-6.968h2.99c.494 0 .936.056 1.326.169.399.104.711.286.936.546.234.251.351.598.351 1.04zm-1.157.143c0-.33-.121-.568-.364-.715-.234-.156-.619-.234-1.157-.234h-1.781v1.911h1.573c1.153 0 1.729-.32 1.729-.962zm.195 3.029c0-.399-.151-.685-.455-.858-.303-.173-.749-.26-1.339-.26h-1.703v2.236h1.729c.572 0 1.01-.082 1.313-.247.304-.173.455-.464.455-.871zm9.817-1.456c0 1.153-.294 2.045-.884 2.678-.58.633-1.369.949-2.366.949a3.27 3.27 0 01-1.651-.416 3.018 3.018 0 01-1.131-1.235c-.277-.546-.416-1.205-.416-1.976 0-1.153.291-2.041.871-2.665.581-.624 1.37-.936 2.366-.936.633 0 1.188.143 1.664.429.486.277.863.685 1.131 1.222.278.529.416 1.179.416 1.95zm-5.265 0c0 .823.161 1.478.481 1.963.33.477.85.715 1.56.715.702 0 1.218-.238 1.547-.715.33-.485.494-1.14.494-1.963 0-.823-.164-1.469-.494-1.937-.329-.468-.849-.702-1.56-.702-.71 0-1.226.234-1.547.702-.32.468-.481 1.114-.481 1.937z" fill="#F4522F" fill-opacity=".41"/><g clip-path="url(#clip0)" fill="#F4522F"><path d="M26.798 48.742c-.289 0-.578-.11-.8-.33l-14.52-14.52a1.131 1.131 0 01-.046-1.553l10.884-12.191c7.607-8.9 19.995-14.66 30.797-14.476.603.014 1.089.5 1.102 1.103.251 10.808-5.573 23.19-14.496 30.813L27.55 48.455a1.118 1.118 0 01-.75.287zM13.83 33.05l13.01 13.01 11.395-10.17c8.147-6.964 13.559-18.062 13.726-27.96-9.898.165-20.994 5.576-27.944 13.705L13.829 33.05z"/><path d="M31.125 57.012c-.108 0-.22-.016-.323-.05-.407-.136-.741-.448-.8-.872l-1.55-10.816a1.132 1.132 0 01.958-1.279 1.124 1.124 0 011.279.958l1.21 8.45c3.96-4.733 6.16-10.734 6.16-16.852a1.13 1.13 0 012.26 0c0 7.485-3.033 14.812-8.32 20.097a1.27 1.27 0 01-.874.364zM14.778 31.45a.97.97 0 01-.16-.012l-10.816-1.55a1.128 1.128 0 01-.632-1.923c5.361-5.361 12.686-8.393 20.171-8.393a1.13 1.13 0 010 2.26c-6.147 0-12.18 2.22-16.863 6.156l8.46 1.213c.618.09 1.047.66.959 1.279-.084.563-.567.97-1.119.97zm23.932-4.624a5.631 5.631 0 01-3.995-1.651 5.66 5.66 0 010-7.99 5.655 5.655 0 017.99 0 5.66 5.66 0 010 7.99 5.629 5.629 0 01-3.995 1.651zm0-9.032c-.868 0-1.738.33-2.398.99a3.398 3.398 0 000 4.794 3.4 3.4 0 004.795 0 3.398 3.398 0 000-4.795 3.395 3.395 0 00-2.397-.99zm3.194 6.583h.023-.023zM1.13 59.89a1.128 1.128 0 01-1.082-1.453c.37-1.236 3.689-12.157 6.106-14.575 2.723-2.722 7.154-2.725 9.876 0a6.991 6.991 0 010 9.876c-2.417 2.417-13.34 5.736-14.575 6.107-.108.03-.217.045-.325.045zm9.963-15.813c-1.21 0-2.42.46-3.341 1.38-1.304 1.306-3.473 7.137-4.905 11.586 4.446-1.432 10.28-3.601 11.583-4.905a4.73 4.73 0 000-6.68 4.706 4.706 0 00-3.337-1.381z"/></g><defs><clipPath id="clip0"><path fill="#fff" transform="translate(0 5.665)" d="M0 0h54.225v54.225H0z"/></clipPath></defs></svg>