<svg width="46" height="46" fill="none" xmlns="http://www.w3.org/2000/svg"><g clip-path="url(#clip0)" fill="#F4522F"><path d="M9.613 17.07c0 7.431 6.046 13.477 13.477 13.477 7.43 0 13.476-6.046 13.476-13.477 0-7.43-6.045-13.476-13.476-13.476-7.431 0-13.477 6.045-13.477 13.476zM23.09 5.39c6.44 0 11.68 5.24 11.68 11.68 0 6.44-5.24 11.68-11.68 11.68-6.44 0-11.68-5.24-11.68-11.68 0-6.44 5.24-11.68 11.68-11.68z"/><path d="M14.77 15.469l3.482 3.43-.801 4.823a.898.898 0 001.3.945l4.339-2.253 4.338 2.253a.898.898 0 001.3-.945l-.8-4.822 3.482-3.431a.898.898 0 00-.497-1.529l-4.833-.727-2.187-4.374a.898.898 0 00-1.607 0L20.1 13.213l-4.833.727a.899.899 0 00-.496 1.529zm6.058-.549a.899.899 0 00.67-.486l1.592-3.184 1.591 3.184a.899.899 0 00.67.486l3.518.53-2.535 2.497a.9.9 0 00-.256.787l.584 3.51-3.158-1.64a.896.896 0 00-.828 0l-3.158 1.64.583-3.51a.898.898 0 00-.256-.787l-2.534-2.497 3.517-.53zM23.988.898a.898.898 0 11-1.796 0 .898.898 0 011.796 0z"/><path d="M18.856.53A17.054 17.054 0 006.019 17.07c0 4.85 2.04 9.421 5.62 12.658l-5.413 9.54a.899.899 0 00.964 1.322l6.147-1.276 2.16 6.088a.898.898 0 001.628.144l5.965-10.487 5.964 10.487a.898.898 0 001.628-.144l2.16-6.088 6.147 1.276a.899.899 0 00.964-1.323l-5.413-9.539a17.017 17.017 0 005.62-12.658c0-7.81-5.278-14.611-12.836-16.54a.898.898 0 10-.445 1.74 15.259 15.259 0 0111.484 14.8c0 8.505-6.907 15.274-15.273 15.274-8.373 0-15.274-6.775-15.274-15.274A15.259 15.259 0 0119.3 2.27a.899.899 0 00-.444-1.74zm-2.322 42.42l-1.765-4.975a.899.899 0 00-1.03-.58l-4.97 1.033 4.284-7.55a17.107 17.107 0 008.53 3.196l-5.049 8.876zm15.906-5.555a.899.899 0 00-1.03.58l-1.765 4.975-5.049-8.876a17.109 17.109 0 008.531-3.196l4.284 7.55-4.971-1.033z"/></g><defs><clipPath id="clip0"><path fill="#fff" d="M0 0h46v46H0z"/></clipPath></defs></svg>