<svg width="27" height="27" fill="none" xmlns="http://www.w3.org/2000/svg"><path d="M22.115 27c-.554-.167-1.08-.278-1.571-.48-5.076-2.085-9.748-4.777-13.448-8.902-2.104-2.345-3.751-4.994-5.143-7.797C1.293 8.492.736 7.111.169 5.74c-.517-1.252.245-2.544 1.046-3.487C1.968 1.367 2.937.69 3.985.19 4.804-.2 5.611.026 6.21.713c1.292 1.486 2.48 3.047 3.44 4.77.591 1.06.429 2.354-.642 3.075-.26.175-.498.381-.74.579-.214.173-.414.349-.56.583-.266.43-.279.937-.107 1.404 1.32 3.596 3.548 6.393 7.202 7.9.585.24 1.172.52 1.846.443 1.128-.13 1.493-1.357 2.284-1.997.773-.626 1.76-.634 2.593-.112.832.522 1.64 1.082 2.442 1.648.787.556 1.571 1.1 2.298 1.734.698.609.939 1.408.545 2.235-.72 1.514-1.767 2.774-3.279 3.578-.426.227-.936.3-1.417.447-.554-.167.48-.147 0 0z" fill="#fff"/></svg>