<svg width="52" height="52" fill="none" xmlns="http://www.w3.org/2000/svg"><path d="M34.115 39c-.554-.167-1.08-.278-1.571-.48-5.076-2.085-9.748-4.777-13.448-8.902-2.104-2.345-3.751-4.994-5.143-7.797-.66-1.329-1.217-2.71-1.784-4.082-.517-1.252.245-2.544 1.046-3.487.753-.885 1.722-1.562 2.77-2.062.819-.39 1.626-.164 2.224.523 1.293 1.486 2.48 3.047 3.441 4.77.591 1.06.429 2.354-.642 3.075-.26.175-.498.381-.74.579-.213.174-.414.349-.56.584-.266.43-.279.936-.107 1.403 1.32 3.596 3.548 6.393 7.202 7.9.585.24 1.172.52 1.846.443 1.128-.13 1.493-1.357 2.284-1.997.773-.626 1.76-.634 2.593-.112.832.522 1.64 1.082 2.442 1.648.787.556 1.571 1.1 2.298 1.734.698.609.939 1.408.545 2.235-.72 1.514-1.767 2.774-3.279 3.578-.426.227-.936.3-1.417.447-.554-.167.48-.147 0 0z" fill="#F4522F"/><rect x="1.5" y="1.5" width="49" height="49" rx="24.5" stroke="#F4522F" stroke-width="3"/></svg>