<svg width="68" height="57" fill="none" xmlns="http://www.w3.org/2000/svg"><path d="M63.818 0h-60A3.962 3.962 0 001.12 1.047 3.46 3.46 0 000 3.569v39.77a3.46 3.46 0 001.12 2.522 3.961 3.961 0 002.698 1.047H25.76l-1.455 4.079h-2.486c-.29 0-.567.107-.771.298a.987.987 0 00-.32.721v2.04h-7.636c-.29 0-.567.107-.771.298a.987.987 0 00-.32.722c0 .27.115.53.32.72.204.192.482.3.77.3h41.455c.29 0 .567-.108.772-.3a.987.987 0 00.32-.72c0-.27-.116-.53-.32-.722a1.13 1.13 0 00-.772-.298H46.91v-2.04c0-.27-.115-.53-.32-.72a1.131 1.131 0 00-.77-.3h-2.487l-1.455-4.078h21.941a3.961 3.961 0 002.699-1.047 3.46 3.46 0 001.12-2.522V3.569a3.46 3.46 0 00-1.12-2.522A3.962 3.962 0 0063.818 0zm-19.09 53.026v1.02h-21.82v-1.02h21.818zm-18.123-2.04l1.454-4.078h11.518l1.455 4.079H26.605zm38.85-7.647c0 .405-.173.794-.48 1.08a1.698 1.698 0 01-1.157.45h-60a1.693 1.693 0 01-1.156-.45 1.482 1.482 0 01-.48-1.08v-1.53h63.272v1.53zm0-3.57H2.181V3.57c0-.406.173-.794.48-1.081a1.697 1.697 0 011.156-.449h60c.434 0 .85.162 1.157.449.307.287.48.675.48 1.081v36.2z" fill="#F4522F"/><path d="M40.364 16.316c0-1.21-.384-2.393-1.103-3.4a6.47 6.47 0 00-2.938-2.253 6.97 6.97 0 00-3.782-.348 6.698 6.698 0 00-3.351 1.675 6.006 6.006 0 00-1.792 3.132 5.748 5.748 0 00.373 3.535 6.227 6.227 0 002.41 2.746 6.875 6.875 0 003.637 1.031c1.736-.002 3.4-.647 4.626-1.794 1.227-1.147 1.918-2.702 1.92-4.324zm-6.546 4.079c-.863 0-1.706-.24-2.424-.688a4.152 4.152 0 01-1.607-1.83 3.832 3.832 0 01-.249-2.357 4.004 4.004 0 011.195-2.088 4.465 4.465 0 012.234-1.117 4.647 4.647 0 012.521.232 4.314 4.314 0 011.958 1.503c.48.67.736 1.46.736 2.266-.002 1.081-.462 2.118-1.28 2.883a4.528 4.528 0 01-3.084 1.196z" fill="#F4522F"/><path d="M22.226 32.2a16.449 16.449 0 005.314 3.337 17.329 17.329 0 006.278 1.173 17.33 17.33 0 006.278-1.172A16.448 16.448 0 0045.41 32.2c.067-.051.127-.109.18-.173 2.231-2.16 3.733-4.886 4.318-7.838.585-2.952.228-6-1.028-8.764-1.255-2.763-3.352-5.12-6.03-6.778-2.68-1.657-5.82-2.54-9.032-2.54-3.212 0-6.353.883-9.031 2.54-2.679 1.658-4.776 4.015-6.032 6.778a14.378 14.378 0 00-1.027 8.764c.585 2.952 2.087 5.678 4.318 7.838.053.064.113.122.18.173zM24 30.97v-2.418c.001-1.081.461-2.118 1.28-2.883a4.527 4.527 0 013.083-1.196h10.91a4.528 4.528 0 013.084 1.196c.818.765 1.278 1.802 1.28 2.883v2.419c-2.639 2.374-6.158 3.7-9.82 3.7-3.66 0-7.18-1.326-9.817-3.7zm9.818-22.812a14.937 14.937 0 017.209 1.837c2.184 1.205 3.982 2.935 5.208 5.01a12.564 12.564 0 011.759 6.788 12.64 12.64 0 01-2.178 6.681c-.024-1.608-.723-3.143-1.948-4.273-1.224-1.13-2.875-1.765-4.596-1.767H28.364c-1.72.002-3.371.636-4.596 1.767-1.224 1.13-1.923 2.665-1.947 4.273a12.64 12.64 0 01-2.178-6.681 12.562 12.562 0 011.76-6.788c1.225-2.075 3.023-3.805 5.207-5.01a14.936 14.936 0 017.209-1.837zM4.363 21.415h10.91c.289 0 .566-.108.771-.3a.987.987 0 00.32-.72v-6.118c0-.27-.115-.53-.32-.721a1.131 1.131 0 00-.771-.3H4.363c-.289 0-.566.108-.77.3a.987.987 0 00-.32.72v6.119c0 .27.115.53.32.72.204.192.481.3.77.3zm1.091-6.119h8.728v4.08H5.454v-4.08zm-1.091 9.177h10.91c.289 0 .566-.107.771-.299a.987.987 0 00.32-.72.988.988 0 00-.32-.722 1.13 1.13 0 00-.771-.298H4.363c-.289 0-.566.107-.77.298a.987.987 0 00-.32.721c0 .27.115.53.32.721.204.192.481.299.77.299zm0 3.06h10.91c.289 0 .566-.108.771-.299a.987.987 0 00.32-.72.988.988 0 00-.32-.722 1.131 1.131 0 00-.771-.298H4.363c-.289 0-.566.107-.77.298a.987.987 0 00-.32.721c0 .27.115.53.32.721.204.191.481.299.77.299zm0 3.059h4.364c.29 0 .567-.108.772-.299a.987.987 0 00.319-.72.988.988 0 00-.32-.722 1.13 1.13 0 00-.77-.299H4.362c-.289 0-.566.108-.77.3a.987.987 0 00-.32.72c0 .27.115.53.32.721.204.191.481.299.77.299zm8.727-2.04H12c-.29 0-.567.108-.771.3a.987.987 0 00-.32.72c0 .27.115.53.32.721.204.191.482.299.771.299h1.09c.29 0 .568-.108.772-.299a.987.987 0 00.32-.72.988.988 0 00-.32-.722 1.131 1.131 0 00-.771-.299zm39.274-7.137h10.909c.29 0 .567-.108.771-.3a.987.987 0 00.32-.72v-6.118c0-.27-.115-.53-.32-.721a1.131 1.131 0 00-.771-.3h-10.91c-.289 0-.566.108-.77.3a.987.987 0 00-.32.72v6.119c0 .27.115.53.32.72.204.192.481.3.77.3zm1.09-6.119h8.728v4.08h-8.727v-4.08zm-1.09 9.177h10.909c.29 0 .567-.107.771-.299a.987.987 0 00.32-.72.988.988 0 00-.32-.722 1.13 1.13 0 00-.771-.298h-10.91c-.289 0-.566.107-.77.298a.987.987 0 00-.32.721c0 .27.115.53.32.721.204.192.481.299.77.299zm0 3.06h10.909c.29 0 .567-.108.771-.299a.987.987 0 00.32-.72.988.988 0 00-.32-.722 1.131 1.131 0 00-.771-.298h-10.91c-.289 0-.566.107-.77.298a.987.987 0 00-.32.721c0 .27.115.53.32.721.204.191.481.299.77.299zm0 3.059h4.363c.29 0 .567-.108.772-.299a.987.987 0 00.32-.72.992.992 0 00-.32-.722 1.131 1.131 0 00-.772-.299h-4.363c-.29 0-.567.108-.772.3a.987.987 0 00-.32.72c0 .27.116.53.32.721.205.191.482.299.772.299zm8.727-2.04h-1.09c-.29 0-.567.108-.772.3a.987.987 0 00-.32.72c0 .27.115.53.32.721.205.191.482.299.771.299h1.091c.29 0 .567-.108.772-.299a.987.987 0 00.32-.72.992.992 0 00-.32-.722 1.131 1.131 0 00-.772-.299z" fill="#F4522F"/></svg>