<svg width="75" height="67" fill="none" xmlns="http://www.w3.org/2000/svg"><path d="M42.083 22.288l.127-.227-2.164-.966-.127.229c-.46.822-1.387 1.333-2.42 1.333-1.031 0-1.958-.51-2.419-1.333l-.127-.228-2.164.966.127.228c.874 1.558 2.63 2.525 4.584 2.525 1.953 0 3.71-.967 4.583-2.527zm-8.212-2.868c.668 0 1.21-.483 1.21-1.078 0-.596-.542-1.08-1.21-1.08-.668 0-1.21.484-1.21 1.08 0 .595.542 1.079 1.21 1.079zm7.259 0c.668 0 1.21-.483 1.21-1.078 0-.596-.542-1.08-1.21-1.08-.669 0-1.21.484-1.21 1.08 0 .595.541 1.079 1.21 1.079zM37.5 49.63c-2 0-3.629 1.453-3.629 3.237 0 1.785 1.628 3.237 3.63 3.237 2 0 3.628-1.452 3.628-3.236 0-1.785-1.628-3.237-3.629-3.237zm0 4.316c-.668 0-1.21-.483-1.21-1.078 0-.596.542-1.08 1.21-1.08.668 0 1.21.484 1.21 1.08 0 .595-.542 1.078-1.21 1.078zM14.516 6.672V4.316h-2.42v2.158H9.678V9.71c0 1.785 1.629 3.237 3.63 3.237.667 0 1.21.483 1.21 1.079v1.079h-1.21c-.668 0-1.21-.484-1.21-1.08v-1.078h-2.42v1.079c0 1.405 1.015 2.591 2.42 3.038v2.357h2.42v-2.158h2.419v-3.237c0-1.785-1.629-3.237-3.63-3.237-.667 0-1.21-.483-1.21-1.079V8.631h1.21c.668 0 1.21.484 1.21 1.08v1.078h2.42V9.71c0-1.404-1.015-2.591-2.42-3.038zM19.355 41v-3.238c0-1.784-1.628-3.236-3.629-3.236-.667 0-1.21-.484-1.21-1.08v-1.078h1.21c.668 0 1.21.483 1.21 1.078v1.08h2.42v-1.08c0-1.784-1.629-3.236-3.63-3.236h-3.629v3.236c0 1.785 1.629 3.237 3.63 3.237.667 0 1.21.484 1.21 1.08v1.078h-1.21c-.668 0-1.21-.483-1.21-1.079v-1.079h-2.42v1.08c0 1.784 1.629 3.236 3.63 3.236h3.628zm48.387-6.474h2.42v2.157h-2.42v-2.157zm-4.839 0h2.419v2.157h-2.42v-2.157zm-4.838 0h2.419v2.157h-2.42v-2.157z" fill="#F4522F"/><path d="M72.58 30.21H55.646c-1.334 0-2.42.968-2.42 2.158v.005a14.961 14.961 0 00-4.637-1.378l-5.289-.674-.747-2.474c1.749-.96 3.132-2.396 3.913-4.11h4.341v1.903c0 1.33 1.214 2.412 2.705 2.412 1.03 0 1.956-.511 2.42-1.333l1.671-2.983h10.14c1.334 0 2.42-.967 2.42-2.157v-10.79c0-1.19-1.086-2.158-2.42-2.158H51.79C50.715 3.72 45.859 0 40.042 0H34.96c-4.487 0-8.4 2.215-10.45 5.48C22.091 2.132 17.87 0 13.305 0 5.97 0 0 5.325 0 11.868c0 6.544 5.97 11.868 13.306 11.868 4.069 0 7.827-1.65 10.314-4.375.83 1.317 2.393 2.218 4.203 2.218h.083c.374 2.652 2.099 4.927 4.541 6.268l-.747 2.474-5.29.673a14.66 14.66 0 00-1.017.166c-1.81-3.123-5.46-5.266-9.667-5.266-6.004 0-10.887 4.356-10.887 9.71 0 4.99 4.242 9.11 9.677 9.648v9.774c0 2.974 2.713 5.394 6.048 5.394h1.21v2.158c0 2.38 2.17 4.316 4.839 4.316h21.774c2.669 0 4.839-1.936 4.839-4.316V60.42h1.21c3.335 0 6.048-2.42 6.048-5.394v-9.749c.895.14 1.901-.131 2.566-.725L67.033 41h5.548C73.915 41 75 40.032 75 38.843v-6.474c0-1.19-1.085-2.158-2.42-2.158zm-28.298 2.417l-1.464 4.566-3.368-1.802 3.316-2.957 1.516.193zm5.315-15.364c0 1.19-1.085 2.158-2.42 2.158v-4.316c1.335 0 2.42.968 2.42 2.158zm18.145 4.316H56.107l-2.34 4.173c-.12.214-.541.125-.541-.112v-4.061h-6.049c1.784 0 3.327-.874 4.167-2.158h13.979v-2.158H52.016c0-.79-.256-1.52-.672-2.158h13.979v-2.158h-13.59a9.586 9.586 0 00.277-2.158h15.732v10.79zm-54.436 0c-6.003 0-10.887-4.356-10.887-9.71 0-5.355 4.884-9.711 10.887-9.711 4.375 0 8.356 2.397 10.035 5.983a9.526 9.526 0 00-.357 2.54c0 1.391.329 2.779.923 4.066a4.12 4.12 0 00-.59.972l-.01-.004c-1.725 3.562-5.65 5.864-10 5.864zm12.097-4.316c0-1.19 1.085-2.158 2.42-2.158h.012c-.002.045-.012.088-.012.133v4.183c-1.335 0-2.42-.968-2.42-2.158zm3.01-4.316h-.59a5.3 5.3 0 00-1.938.367 7.706 7.706 0 01-.482-2.634c0-4.698 4.287-8.522 9.556-8.522h5.081c5.27 0 9.557 3.824 9.557 8.522 0 .893-.172 1.784-.482 2.634a5.3 5.3 0 00-1.938-.367H37.5c-1.334 0-2.42-.968-2.42-2.158s1.086-2.158 2.42-2.158V6.474c-2.337 0-4.29 1.484-4.74 3.451l-.355.079c-1.81.405-3.237 1.514-3.992 2.943zm1.829 7.553v-5.262c0-1.465 1.1-2.736 2.678-3.12.633 1.728 2.435 2.987 4.58 2.987h7.258V20.5c0 3.57-3.255 6.473-7.258 6.473s-7.258-2.903-7.258-6.473zm7.258 8.63c.981 0 1.927-.133 2.82-.376l.669 2.213-3.489 3.111-3.489-3.111.67-2.213a10.69 10.69 0 002.819.376zm-5.267 3.303l3.316 2.957-3.368 1.802-1.464-4.566 1.516-.193zm-5.479.698l1.546-.198 2.421 7.556 6.779-3.627 6.779 3.627 2.42-7.556 1.547.198c1.434.182 2.799.6 4.057 1.242.322.164.62.362.923.553v3.915c0 1.19 1.085 2.157 2.42 2.157h2.419v6.474h-4.84v-1.079c0-1.784-1.627-3.237-3.628-3.237H25.403c-2 0-3.629 1.453-3.629 3.237v1.08h-4.838v-2.222c5.435-.539 9.677-4.657 9.677-9.647 0-.821-.127-1.615-.344-2.378.164-.027.322-.075.485-.095zM50.806 60.42H24.195V46.394c0-.595.541-1.079 1.21-1.079h24.193c.667 0 1.21.484 1.21 1.08V60.42zM7.258 35.605c0-4.164 3.8-7.553 8.468-7.553s8.468 3.39 8.468 7.553-3.8 7.552-8.468 7.552-8.468-3.389-8.468-7.552zm13.306 22.657c-2 0-3.628-1.452-3.628-3.236V49.63h4.838v2.158h-2.42v2.158h2.42v4.315h-1.21zm27.823 6.474H26.613c-1.334 0-2.42-.968-2.42-2.158h26.613c0 1.19-1.085 2.158-2.419 2.158zm6.048-6.474h-1.21v-4.315h2.42v-2.158h-2.42V49.63h4.84v5.395c0 1.784-1.629 3.236-3.63 3.236zm18.146-19.42h-6.55l-4.692 4.185c-.289.257-.855.048-.855-.316v-3.87h-4.839v-6.473h16.936v6.474z" fill="#F4522F"/></svg>