<svg width="75" height="75" fill="none" xmlns="http://www.w3.org/2000/svg"><path d="M38.672 55.078h-2.344v2.344h2.344v-2.344z" fill="#F4522F"/><path d="M69.14 16.406H53.333l1.875-1.25c.189-.126.337-.305.427-.514l2.491-5.8a1.172 1.172 0 00-.248-1.29l-3.32-3.316a1.172 1.172 0 00-1.288-.248l-5.801 2.486c-.209.09-.387.238-.513.427l-3.271 4.907-4.18 4.598h-3.578l-.04-.04a11.659 11.659 0 00-3.015-11.301 10.624 10.624 0 00-10.254-2.788 1.172 1.172 0 00-.63 1.834l4.361 5.816-3.534 3.534L17.002 9.1a1.172 1.172 0 00-1.834.631 10.472 10.472 0 00.426 6.68H5.86a3.515 3.515 0 00-3.515 3.515v37.497a3.516 3.516 0 003.515 3.515h23.227l-.782 4.688h-1.35a1.172 1.172 0 00-.938.469L22.5 70.78a1.171 1.171 0 00.938 1.875h28.125a1.172 1.172 0 00.937-1.875l-3.516-4.687a1.173 1.173 0 00-.937-.47h-1.351l-.782-4.687h23.227a3.516 3.516 0 003.515-3.515v-37.5a3.515 3.515 0 00-3.515-3.516zm-29.68 3.535l5.197-5.72 3.23 3.232-5.718 5.197-2.71-2.71zm9.25-11.45l4.752-2.036 2.193 2.192-2.037 4.752-3.883 2.588-3.612-3.613L48.71 8.49zm-26.484 7.455a1.172 1.172 0 001.531-.108l4.973-4.972a1.172 1.172 0 00.107-1.532l-3.8-5.067a8.367 8.367 0 016.177 2.455 9.197 9.197 0 012.235 9.492 1.172 1.172 0 00.25 1.289l13.26 13.25a1.172 1.172 0 001.288.251 9.195 9.195 0 019.492 2.235 8.344 8.344 0 012.456 6.177l-5.068-3.8a1.171 1.171 0 00-1.531.108l-4.973 4.973a1.173 1.173 0 00-.107 1.531l3.799 5.068a8.331 8.331 0 01-6.177-2.456c-2.609-2.608-3.604-6.746-2.267-9.419a1.172 1.172 0 00-.219-1.353l-13.267-13.26a1.171 1.171 0 00-1.353-.218c-2.673 1.338-6.81.342-9.42-2.267a8.342 8.342 0 01-2.46-6.177l5.074 3.8zM32.438 36.52l-1.993.4a1.172 1.172 0 00-.937 1.148v1.172l-7.058 7.12a4.678 4.678 0 01-3.348 1.391 4.712 4.712 0 01-3.33-8.042l7.097-7.097h1.172a1.172 1.172 0 001.148-.938l.4-1.992 6.849 6.838zM29.8 30.57l3.344-3.686 2.08 2.08-3.686 3.345L29.8 30.57zM5.859 18.75h11.052c.317.436.666.847 1.044 1.23 3.095 3.094 7.81 4.321 11.333 3.047l2.198 2.2-3.345 3.687-2.443-2.444a1.172 1.172 0 00-1.978.599l-.634 3.2h-.703c-.311 0-.609.123-.829.343l-7.442 7.44a7.056 7.056 0 004.99 12.043h.008a7.008 7.008 0 004.992-2.079l7.4-7.465c.216-.218.338-.513.339-.82v-.696l3.202-.64a1.172 1.172 0 00.598-1.978l-2.443-2.443 3.687-3.345 4.543 4.542c-1.274 3.524-.05 8.239 3.047 11.332 2 2.007 4.716 3.139 7.55 3.147.91 0 1.816-.12 2.694-.359a1.172 1.172 0 00.631-1.834l-4.362-5.816 3.535-3.534 5.816 4.362a1.17 1.17 0 001.834-.63 10.622 10.622 0 00-2.788-10.251 11.656 11.656 0 00-11.302-3.015l-4.255-4.265 6.114-5.558H69.14a1.172 1.172 0 011.171 1.172v31.64H4.689v-31.64A1.172 1.172 0 015.86 18.75zm43.36 51.562H25.78l1.758-2.343H47.46l1.758 2.343zm-4.899-4.687H30.68l.781-4.688H43.54l.781 4.688zm24.82-7.031H5.86a1.172 1.172 0 01-1.173-1.172v-3.516h65.626v3.516a1.172 1.172 0 01-1.172 1.172z" fill="#F4522F"/></svg>