<svg width="32" height="54" fill="none" xmlns="http://www.w3.org/2000/svg"><path d="M15.884 53.083c8.758 0 15.883-6.886 15.883-15.35V16.247c0-8.464-7.125-15.35-15.883-15.35C7.125.897 0 7.783 0 16.247v21.486c0 8.464 7.125 15.35 15.884 15.35zM3.24 16.247c0-6.737 5.672-12.219 12.644-12.219 6.971 0 12.644 5.482 12.644 12.22v21.485c0 6.737-5.673 12.219-12.644 12.219-6.972 0-12.644-5.482-12.644-12.22V16.248z" fill="#F4522F"/><path d="M15.842 43.419c1.104 0 2-.72 2-1.61v-7.41c0-.89-.895-1.61-2-1.61-1.104 0-2 .72-2 1.61v7.41c0 .89.895 1.61 2 1.61z" fill="#F4522F"/><path d="M10.578 38.54c-.407.507-.355 1.203.116 1.556l3.92 2.933c.471.351 1.182.225 1.589-.282.406-.508.354-1.204-.116-1.556l-3.921-2.933c-.471-.352-1.182-.226-1.588.281z" fill="#F4522F"/><path d="M21.157 38.53c-.414-.502-1.126-.62-1.592-.261l-3.88 2.983c-.466.358-.508 1.055-.095 1.557.413.502 1.126.62 1.592.261l3.88-2.983c.466-.358.508-1.055.095-1.557z" fill="#F4522F"/></svg>