<svg width="46" height="46" fill="none" xmlns="http://www.w3.org/2000/svg"><g clip-path="url(#clip0)" fill="#F4522F"><path d="M43.807 26.944h-.689v-6.201c0-.982-.488-1.85-1.234-2.379v-.844a2.223 2.223 0 00-2.221-2.221h-.514l1.966-2.886c.66-.967.409-2.29-.558-2.95L27.212.37a2.107 2.107 0 00-1.59-.331 2.109 2.109 0 00-1.36.89L12.744 17.83H9.54l.773-7.828a.232.232 0 01.146-.195 4.983 4.983 0 002.431-1.975.23.23 0 01.218-.103l5.027.497a.656.656 0 00.13-1.304l-5.028-.497a1.534 1.534 0 00-1.453.703A3.664 3.664 0 019.996 8.58c-.551.208-.93.703-.988 1.293l-.786 7.957h-.836L8.609 5.449a.812.812 0 01.888-.728l10.159 1.003a.656.656 0 00.129-1.304L9.625 3.416a2.126 2.126 0 00-2.32 1.904l-.986 9.979h-1.68c-1.224 0-2.22.996-2.22 2.22v.577a2.916 2.916 0 00-1.7 2.647v22.344A2.917 2.917 0 003.633 46h36.572a2.917 2.917 0 002.913-2.913v-6.2h.689c.813 0 1.473-.662 1.473-1.474v-6.996c0-.812-.66-1.473-1.473-1.473zM39.663 16.61a.91.91 0 01.91.91v.334a2.916 2.916 0 00-.368-.024h-2.78l.83-1.22h1.408zM25.346 1.666a.807.807 0 01.672-.355c.162 0 .32.049.456.141l13.345 9.095c.37.252.465.758.213 1.128l-4.194 6.155H34.83l2.057-3.018c.333-.49.36-1.112.071-1.625a3.663 3.663 0 01-.439-2.261 1.533 1.533 0 00-.663-1.472L28.939 4.74a1.533 1.533 0 00-1.612-.079 3.664 3.664 0 01-2.265.418 1.552 1.552 0 00-1.486.661l-8.239 12.09h-1.006L25.346 1.666zm.288 11.131a5.409 5.409 0 00-5.388 5.033h-3.323L24.66 6.479a.234.234 0 01.222-.101 4.984 4.984 0 003.08-.57.231.231 0 01.24.015l6.918 4.715c.072.05.112.135.101.218a4.982 4.982 0 00.598 3.075.233.233 0 01-.014.243l-2.559 3.756h-2.222a5.409 5.409 0 00-5.389-5.033zm4.075 5.033H21.56a4.097 4.097 0 014.074-3.722 4.097 4.097 0 014.075 3.722zm-25.98-.31c0-.502.409-.91.91-.91h1.55l-.12 1.22h-2.34v-.31zM2.03 20.743c0-.883.72-1.602 1.603-1.602h36.572c.884 0 1.603.719 1.603 1.602v1.819H2.03v-1.819zm39.778 22.344c0 .883-.72 1.602-1.603 1.602H3.633a1.604 1.604 0 01-1.603-1.602v-1.82h3.535a.655.655 0 100-1.31H2.03V23.873h39.778v3.07h-6.233a4.977 4.977 0 00-4.471 2.802l-.009.017-.02.043a5.095 5.095 0 00-.247.633v.002a4.977 4.977 0 004.748 6.446h6.231v3.071H9.762a.655.655 0 100 1.31h32.046v1.82zm2.162-7.674c0 .09-.073.162-.163.162h-8.231a3.664 3.664 0 01-3.3-5.246 3.664 3.664 0 013.299-2.075h8.232c.09 0 .163.073.163.163v6.996z"/><path d="M35.73 29.256a2.662 2.662 0 00-2.66 2.659 2.662 2.662 0 002.66 2.66 2.662 2.662 0 002.659-2.66 2.662 2.662 0 00-2.66-2.66zm0 4.007a1.35 1.35 0 01-1.35-1.348 1.35 1.35 0 011.35-1.348 1.35 1.35 0 011.348 1.348 1.35 1.35 0 01-1.349 1.348z"/></g><defs><clipPath id="clip0"><path fill="#fff" d="M0 0h46v46H0z"/></clipPath></defs></svg>