<svg width="70" height="70" fill="none" xmlns="http://www.w3.org/2000/svg"><g clip-path="url(#clip0)" fill="#F4522F"><path d="M67.162 41.12a.946.946 0 01-.946-.945v-2.753a.946.946 0 011.892 0v2.753a.946.946 0 01-.946.945z"/><path d="M65.27 68.108H4.73a2.838 2.838 0 01-2.838-2.838V4.73A2.838 2.838 0 014.73 1.892h60.54a2.838 2.838 0 012.838 2.838V30.8a.946.946 0 11-1.892 0V4.73a.946.946 0 00-.946-.946H4.73a.946.946 0 00-.946.946v60.54a.946.946 0 00.946.946h60.54a.946.946 0 00.946-.946v-9.043a.946.946 0 011.892 0v9.043a2.838 2.838 0 01-2.838 2.838z"/><path d="M67.162 50.551a.946.946 0 01-.946-.946v-2.809a.946.946 0 011.892 0v2.81a.946.946 0 01-.946.945zm0-31.632H2.838a.946.946 0 110-1.892h64.324a.946.946 0 110 1.892zm-56.41-4.872a3.642 3.642 0 110-7.283 3.642 3.642 0 010 7.283zm0-5.391a1.75 1.75 0 100 3.5 1.75 1.75 0 000-3.5zm9.829 5.391a3.642 3.642 0 11-.001-7.284 3.642 3.642 0 01.001 7.284zm0-5.391a1.75 1.75 0 10-.002 3.5 1.75 1.75 0 00.002-3.5zm9.827 5.391a3.642 3.642 0 11.008-7.283 3.642 3.642 0 01-.008 7.283zm0-5.391a1.75 1.75 0 10.008 3.499 1.75 1.75 0 00-.008-3.5zM37.56 60.54h-5.12a.946.946 0 01-.932-.782l-.433-2.46a15.076 15.076 0 01-3.71-1.541l-2.05 1.438a.946.946 0 01-1.213-.106l-3.622-3.623a.945.945 0 01-.105-1.213l1.438-2.049a15.07 15.07 0 01-1.542-3.712l-2.46-.432a.946.946 0 01-.784-.932v-5.121a.946.946 0 01.782-.932l2.46-.432a15.07 15.07 0 011.542-3.712l-1.438-2.049a.946.946 0 01.105-1.212l3.622-3.622a.946.946 0 011.213-.106l2.05 1.438a15.076 15.076 0 013.71-1.542l.433-2.46a.946.946 0 01.933-.783h5.122a.946.946 0 01.931.782l.433 2.46c1.3.346 2.548.864 3.71 1.541l2.05-1.438a.946.946 0 011.213.107l3.622 3.62a.946.946 0 01.105 1.213l-1.438 2.05a15.073 15.073 0 011.542 3.711l2.46.432a.946.946 0 01.782.932v5.121a.946.946 0 01-.782.932l-2.46.432a15.073 15.073 0 01-1.541 3.712l1.437 2.05a.946.946 0 01-.105 1.212l-3.622 3.621a.946.946 0 01-1.212.106l-2.05-1.438a15.076 15.076 0 01-3.711 1.542l-.432 2.46a.946.946 0 01-.932.786zm-4.326-1.891h3.532l.379-2.138a.933.933 0 01.732-.905 13.245 13.245 0 004.327-1.802.946.946 0 011.25.205l.014.018 1.656 1.16 2.497-2.498-1.213-1.727a.925.925 0 01-.171-1.193 13.224 13.224 0 001.797-4.328.939.939 0 01.964-.742l2.081-.365v-3.532l-2.138-.379a.935.935 0 01-.905-.732 13.222 13.222 0 00-1.797-4.328.946.946 0 01.201-1.248l.018-.015 1.163-1.654-2.5-2.498-1.726 1.21a.924.924 0 01-1.193.174 13.245 13.245 0 00-4.327-1.802.945.945 0 01-.743-.963l-.366-2.08h-3.532l-.378 2.138a.934.934 0 01-.733.905 13.244 13.244 0 00-4.327 1.802.946.946 0 01-1.25-.206l-.014-.018-1.654-1.16-2.499 2.498 1.213 1.727a.925.925 0 01.171 1.193 13.222 13.222 0 00-1.797 4.328.946.946 0 01-.964.742l-2.081.366v3.532l2.138.378a.935.935 0 01.905.732 13.223 13.223 0 001.797 4.328.946.946 0 01-.201 1.249l-.018.014-1.163 1.654 2.5 2.499 1.726-1.21a.926.926 0 011.193-.174 13.244 13.244 0 004.327 1.802.946.946 0 01.743.963l.366 2.08z"/><path d="M35 52.027a9.46 9.46 0 119.46-9.46 9.47 9.47 0 01-9.46 9.46zM35 35a7.568 7.568 0 107.568 7.568A7.576 7.576 0 0035 35z"/></g><defs><clipPath id="clip0"><path fill="#fff" d="M0 0h70v70H0z"/></clipPath></defs></svg>